<?xml version="1.0" standalone="no"?>
<!DOCTYPE svg PUBLIC "-//W3C//DTD SVG 20010904//EN"
 "http://www.w3.org/TR/2001/REC-SVG-20010904/DTD/svg10.dtd">
<svg version="1.0" xmlns="http://www.w3.org/2000/svg"
 width="840.000000pt" height="859.000000pt" viewBox="0 0 840.000000 859.000000"
 preserveAspectRatio="xMidYMid meet">

<g transform="translate(0.000000,859.000000) scale(0.100000,-0.100000)"
fill="#000000" stroke="none">
<path d="M4580 8004 c-30 -14 -67 -30 -82 -37 -16 -6 -28 -15 -28 -19 0 -4 -5
-8 -11 -8 -7 0 -39 -17 -73 -38 -34 -21 -68 -42 -76 -45 -8 -4 -28 -15 -45
-25 -16 -10 -57 -34 -90 -52 -33 -18 -88 -51 -123 -72 -34 -21 -67 -38 -72
-38 -6 0 -10 -3 -10 -8 0 -4 -17 -16 -37 -27 -21 -11 -56 -31 -78 -45 -22 -14
-53 -32 -70 -40 -16 -8 -55 -32 -86 -52 -31 -20 -74 -47 -95 -58 -22 -12 -52
-30 -69 -41 -16 -10 -46 -27 -65 -36 -19 -10 -39 -23 -45 -30 -5 -7 -30 -23
-55 -36 -25 -13 -86 -49 -137 -80 -50 -32 -93 -57 -95 -57 -3 0 -43 -25 -89
-55 -46 -30 -88 -55 -93 -55 -5 0 -24 -11 -42 -25 -18 -14 -37 -25 -43 -25 -6
0 -11 -3 -11 -8 0 -4 -22 -18 -50 -31 -27 -13 -50 -28 -50 -32 0 -5 -4 -9 -10
-9 -5 0 -50 -25 -101 -55 -50 -31 -93 -54 -95 -52 -7 7 31 43 66 63 19 10 58
36 87 57 29 20 54 37 57 37 5 0 96 60 106 70 7 7 42 29 60 37 8 4 20 11 25 16
11 9 186 126 213 142 9 6 19 13 22 16 5 6 110 77 138 94 9 6 19 13 22 16 3 3
23 18 46 32 22 14 47 32 55 40 8 7 32 25 54 39 59 38 105 87 105 113 0 12 -11
34 -25 49 -19 21 -30 25 -52 20 -51 -12 -115 -41 -208 -94 -38 -22 -77 -43
-85 -47 -8 -3 -42 -24 -76 -45 -34 -21 -66 -38 -73 -38 -6 0 -11 -4 -11 -10 0
-5 -11 -12 -25 -16 -14 -3 -25 -9 -25 -13 0 -3 -17 -15 -37 -26 -21 -11 -59
-32 -84 -47 -25 -16 -49 -28 -53 -28 -20 0 78 75 189 144 49 31 99 64 110 74
11 9 45 33 75 52 30 19 57 38 58 42 2 5 10 8 18 8 8 0 14 4 14 9 0 5 16 19 36
31 69 43 124 101 124 131 0 30 -19 54 -50 64 -17 5 -126 -38 -140 -56 -3 -3
-15 -9 -27 -13 -13 -4 -23 -12 -23 -17 0 -5 -7 -9 -17 -9 -9 0 -30 -10 -47
-22 -17 -13 -49 -32 -71 -43 -22 -11 -42 -22 -45 -26 -3 -3 -34 -21 -70 -40
-36 -19 -67 -37 -70 -40 -3 -4 -23 -17 -45 -28 -22 -12 -47 -26 -55 -31 -86
-53 -152 -90 -160 -90 -6 0 -10 -4 -10 -10 0 -5 -11 -12 -25 -16 -14 -3 -25
-9 -25 -13 0 -3 -17 -15 -37 -26 -38 -20 -155 -87 -183 -105 -8 -6 -22 -13
-30 -17 -8 -4 -17 -9 -20 -12 -3 -3 -21 -15 -40 -25 -19 -10 -48 -26 -65 -35
-16 -9 -35 -22 -43 -28 -7 -7 -20 -13 -28 -13 -8 0 -14 -4 -14 -9 0 -5 -8 -11
-17 -15 -10 -3 -31 -15 -48 -26 -16 -11 -37 -23 -45 -27 -8 -3 -42 -24 -76
-45 -34 -21 -64 -38 -66 -38 -3 0 -52 -28 -109 -63 -57 -35 -111 -67 -119 -70
-8 -4 -42 -23 -75 -42 -33 -19 -76 -43 -95 -52 -19 -10 -36 -21 -38 -25 -2 -5
-10 -8 -18 -8 -7 0 -21 -12 -30 -26 -16 -24 -16 -27 0 -61 16 -33 19 -35 55
-30 22 2 56 17 77 31 21 14 45 26 52 26 7 0 20 7 28 15 9 8 22 15 31 15 13 0
13 -3 3 -15 -7 -8 -19 -15 -26 -15 -8 0 -14 -4 -14 -9 0 -5 -35 -31 -77 -57
-43 -26 -79 -52 -81 -56 -2 -4 -10 -8 -17 -8 -7 0 -15 -3 -17 -7 -1 -5 -30
-26 -63 -48 -33 -22 -61 -43 -63 -47 -2 -5 -10 -8 -18 -8 -8 0 -14 -3 -14 -8
0 -4 -9 -12 -19 -17 -38 -19 -177 -123 -229 -170 -45 -41 -52 -52 -52 -85 0
-35 3 -40 33 -49 19 -7 43 -9 53 -5 22 7 207 97 214 104 3 3 19 12 35 21 86
46 100 55 103 62 2 4 8 7 13 7 5 0 28 14 51 30 22 17 47 30 55 30 7 0 13 5 13
10 0 6 6 10 14 10 8 0 21 6 28 13 18 17 93 57 108 57 14 0 -64 -64 -100 -82
-14 -7 -36 -23 -50 -35 -14 -13 -29 -23 -33 -23 -10 0 -90 -55 -121 -82 -11
-10 -28 -20 -38 -24 -10 -3 -18 -10 -18 -15 0 -5 -4 -9 -9 -9 -13 0 -104 -66
-159 -115 -51 -46 -65 -75 -52 -109 20 -54 88 -49 214 16 164 85 271 144 316
175 19 12 40 23 47 23 7 0 13 4 13 9 0 5 10 13 23 17 12 4 24 9 27 13 3 3 20
14 38 24 17 9 47 25 64 35 18 9 35 20 38 23 3 4 16 10 29 14 39 12 16 -11 -62
-62 -40 -25 -73 -50 -75 -55 -2 -4 -9 -8 -16 -8 -7 0 -32 -13 -54 -30 -23 -16
-46 -30 -52 -30 -5 0 -10 -4 -10 -10 0 -5 -5 -10 -10 -10 -12 0 -73 -41 -78
-52 -2 -5 -8 -8 -14 -8 -5 0 -16 -6 -23 -12 -8 -7 -50 -38 -94 -68 -115 -80
-138 -133 -74 -175 22 -15 32 -16 56 -7 57 22 48 -1 -18 -44 -37 -24 -70 -44
-75 -44 -4 0 -13 -6 -19 -14 -7 -8 -26 -21 -44 -30 -37 -19 -51 -28 -125 -78
-31 -21 -61 -38 -68 -38 -7 0 -14 -3 -16 -8 -4 -9 -102 -72 -112 -72 -4 0 -17
-9 -29 -21 -12 -11 -31 -25 -42 -30 -30 -15 -142 -86 -155 -99 -3 -3 -21 -14
-40 -24 -19 -11 -46 -30 -60 -43 -14 -13 -29 -23 -35 -23 -5 0 -26 -14 -45
-30 -78 -67 -110 -102 -110 -119 0 -24 47 -71 71 -71 35 0 147 50 294 130 33
18 77 42 98 52 20 11 40 24 43 29 3 5 14 9 25 9 10 0 19 4 19 9 0 5 8 11 18
15 9 3 26 11 37 18 68 45 144 88 154 88 6 0 11 4 11 9 0 4 23 19 50 32 28 13
50 27 50 30 0 4 9 9 20 12 11 3 20 3 20 1 0 -7 -55 -54 -64 -54 -5 0 -33 -18
-62 -40 -29 -22 -56 -40 -59 -40 -3 0 -11 -5 -18 -10 -7 -6 -47 -35 -90 -66
-77 -55 -131 -102 -155 -135 -10 -13 -9 -23 5 -48 23 -41 54 -48 117 -26 28
10 58 20 66 23 25 7 -42 -52 -82 -73 -21 -11 -38 -22 -38 -26 0 -4 -8 -9 -17
-13 -18 -5 -54 -26 -63 -36 -3 -3 -39 -28 -80 -55 -41 -28 -80 -54 -86 -60 -6
-5 -25 -21 -43 -35 -73 -56 -101 -90 -101 -124 0 -39 77 -85 95 -56 3 6 14 10
24 10 24 0 278 130 309 158 7 6 20 12 28 12 8 0 14 3 14 8 0 4 18 16 40 26 22
11 40 23 40 28 0 4 5 8 11 8 18 0 99 43 99 52 0 4 7 8 15 8 9 0 12 -6 9 -15
-4 -8 -12 -15 -20 -15 -8 0 -14 -3 -14 -7 0 -5 -27 -24 -60 -43 -33 -19 -60
-38 -60 -42 0 -5 -5 -8 -11 -8 -10 0 -175 -105 -189 -120 -3 -3 -18 -14 -35
-24 -16 -11 -34 -25 -38 -33 -4 -7 -12 -13 -18 -13 -28 0 -119 -100 -119 -130
0 -51 65 -76 125 -48 14 6 28 8 31 5 7 -6 -20 -37 -32 -37 -3 0 -33 -18 -65
-40 -32 -22 -61 -40 -63 -40 -4 0 -133 -82 -151 -97 -6 -4 -27 -17 -48 -27
-20 -11 -37 -22 -37 -26 0 -4 -8 -10 -17 -14 -22 -7 -37 -17 -129 -83 -40 -29
-76 -53 -80 -53 -4 0 -17 -11 -30 -25 -13 -14 -27 -25 -31 -25 -5 0 -19 -14
-33 -31 -14 -17 -31 -37 -37 -44 -16 -16 -17 -35 -3 -35 6 0 10 -6 10 -13 0
-19 48 -42 79 -39 30 4 154 52 161 62 3 4 16 11 30 15 14 4 27 10 30 14 9 11
71 41 86 41 8 0 14 4 14 9 0 5 21 18 48 30 26 12 70 35 97 52 28 16 59 34 70
39 11 6 29 16 40 22 29 19 84 52 135 80 139 77 165 93 170 99 6 7 66 39 75 39
16 0 -1 -19 -45 -50 -27 -19 -50 -38 -50 -42 0 -5 -5 -8 -11 -8 -15 0 -110
-91 -119 -115 -10 -25 16 -72 42 -79 25 -6 88 4 88 14 0 4 12 11 27 15 28 7
49 17 168 79 84 44 113 47 57 6 -23 -17 -46 -30 -52 -30 -5 0 -10 -3 -10 -8 0
-4 -17 -16 -37 -27 -21 -11 -40 -22 -43 -25 -3 -4 -39 -29 -81 -57 -148 -98
-239 -178 -239 -211 0 -29 48 -72 80 -72 15 0 41 7 56 15 37 19 55 19 48 0 -4
-8 -12 -15 -20 -15 -8 0 -14 -4 -14 -10 0 -5 -11 -12 -25 -16 -14 -3 -25 -9
-25 -13 0 -3 -17 -15 -37 -26 -21 -11 -40 -22 -43 -25 -3 -3 -41 -28 -85 -55
-44 -27 -122 -77 -173 -112 -52 -35 -96 -63 -99 -63 -2 0 -10 -6 -17 -12 -8
-7 -24 -20 -36 -28 -12 -8 -28 -21 -36 -27 -7 -7 -15 -13 -18 -13 -12 0 -67
-61 -76 -85 -8 -20 -5 -30 16 -55 14 -16 34 -30 44 -30 20 0 182 60 190 71 3
3 39 23 80 44 41 20 98 50 125 65 28 16 61 35 75 43 14 7 63 35 110 62 47 27
108 60 135 74 28 14 64 35 80 47 17 11 50 31 75 43 48 23 82 43 90 51 3 3 23
14 45 25 22 11 46 26 53 33 7 6 20 12 28 12 8 0 14 3 14 8 0 4 17 16 38 27 20
11 43 26 50 32 7 7 19 13 27 13 7 0 15 3 17 8 4 10 84 52 99 52 17 0 -24 -34
-116 -96 -44 -29 -93 -65 -110 -79 -16 -15 -37 -32 -45 -39 -8 -6 -21 -23 -29
-37 -11 -23 -11 -30 4 -53 18 -27 54 -42 80 -32 8 3 15 2 15 -2 0 -13 -61 -58
-92 -68 -10 -4 -18 -10 -18 -15 0 -5 -5 -9 -10 -9 -6 0 -50 -25 -99 -55 -49
-30 -94 -55 -99 -55 -6 0 -12 -4 -14 -8 -3 -7 -30 -25 -143 -95 -11 -7 -46
-29 -78 -50 -32 -20 -62 -37 -67 -37 -5 0 -10 -3 -12 -8 -2 -4 -49 -36 -105
-71 -57 -35 -103 -68 -103 -73 0 -4 -6 -8 -14 -8 -8 0 -16 -3 -18 -7 -1 -5
-29 -25 -60 -46 -32 -22 -73 -54 -93 -73 -20 -19 -41 -34 -46 -34 -5 0 -9 -7
-9 -15 0 -8 -4 -15 -10 -15 -5 0 -10 -13 -10 -30 0 -32 33 -70 60 -70 31 0
139 43 220 88 46 26 83 42 87 38 5 -5 -134 -106 -147 -106 -5 0 -10 -4 -10
-10 0 -5 -5 -10 -10 -10 -16 0 -161 -110 -198 -150 -41 -44 -41 -92 -1 -122
23 -17 31 -18 70 -8 24 6 68 22 97 36 29 13 57 24 62 24 6 0 10 5 10 10 0 6 5
10 11 10 12 0 139 60 149 70 5 5 18 12 130 73 30 16 57 32 60 36 3 3 29 18 58
33 74 38 116 62 122 69 3 3 28 16 55 30 28 13 61 34 75 47 14 12 30 22 37 22
6 0 28 9 48 21 51 30 35 2 -23 -41 -93 -69 -135 -115 -134 -149 1 -34 34 -70
65 -71 40 0 31 -8 -193 -148 -96 -60 -237 -157 -267 -182 -7 -5 -15 -10 -18
-10 -7 0 -75 -52 -115 -87 -13 -13 -28 -23 -32 -23 -5 0 -8 -7 -8 -15 0 -8 -4
-15 -9 -15 -5 0 -13 -12 -19 -28 -17 -48 17 -101 65 -102 12 0 25 5 28 10 3 6
15 10 26 10 10 0 27 4 37 9 118 59 145 71 158 71 8 0 14 4 14 8 0 4 15 15 33
23 76 37 207 107 233 126 16 11 40 24 54 28 13 4 30 14 38 21 7 8 20 14 28 14
8 0 14 3 14 8 0 4 20 16 45 27 25 11 45 23 45 26 0 3 19 15 43 28 23 12 51 27
62 34 41 25 92 55 150 87 33 18 62 36 65 39 11 14 60 41 73 41 8 0 20 6 26 14
6 8 23 16 37 19 25 4 25 4 5 -14 -11 -11 -24 -19 -30 -19 -5 0 -11 -3 -13 -7
-2 -5 -37 -30 -78 -58 -41 -27 -76 -53 -78 -57 -2 -5 -8 -8 -13 -8 -6 0 -30
-19 -55 -42 -53 -50 -58 -86 -18 -123 29 -27 40 -30 49 -15 4 6 10 8 15 5 11
-7 2 -35 -10 -35 -5 0 -36 -17 -70 -37 -34 -21 -74 -46 -90 -55 -16 -9 -47
-30 -71 -47 -23 -17 -46 -31 -51 -31 -5 0 -14 -5 -21 -11 -10 -8 -161 -109
-215 -144 -9 -5 -21 -13 -26 -18 -6 -4 -47 -33 -91 -64 -152 -109 -193 -170
-148 -223 18 -21 77 -28 88 -10 3 6 16 10 28 10 12 1 40 12 62 25 22 14 52 30
67 36 36 14 158 79 168 89 6 6 50 30 155 84 44 22 82 44 85 47 3 3 21 14 40
25 19 10 67 38 106 61 39 24 76 43 82 43 7 0 12 4 12 8 0 4 30 23 68 42 37 19
69 37 72 40 12 13 108 70 118 70 5 0 12 4 14 9 5 13 48 24 48 12 0 -5 -17 -20
-37 -32 -21 -13 -39 -27 -41 -31 -2 -4 -8 -8 -14 -8 -5 0 -15 -6 -22 -13 -8
-6 -39 -32 -69 -57 -31 -25 -64 -60 -74 -77 -17 -32 -17 -34 2 -69 l19 -36 64
6 c58 6 63 5 49 -9 -9 -8 -20 -15 -26 -15 -6 0 -11 -4 -11 -9 0 -5 -9 -13 -21
-16 -16 -5 -145 -86 -195 -122 -21 -16 -49 -33 -64 -40 -8 -4 -17 -9 -20 -12
-3 -3 -39 -28 -80 -56 -41 -27 -86 -60 -100 -72 -14 -13 -29 -23 -34 -23 -17
0 -96 -94 -96 -114 1 -25 18 -49 46 -64 26 -14 86 4 197 59 43 22 85 39 93 39
8 0 14 4 14 9 0 5 10 13 23 17 12 4 24 9 27 13 3 3 46 26 95 51 50 24 96 50
103 57 7 7 17 13 22 13 4 0 50 25 101 55 94 55 134 70 109 40 -7 -8 -17 -15
-22 -15 -5 0 -21 -11 -36 -25 -15 -14 -31 -25 -35 -25 -5 0 -14 -6 -22 -13 -7
-6 -26 -22 -42 -34 -88 -69 -108 -98 -93 -138 17 -46 63 -50 160 -14 19 7 46
18 60 26 36 18 56 17 36 -2 -8 -8 -19 -15 -24 -15 -6 0 -12 -4 -14 -8 -3 -8
-95 -72 -104 -72 -6 0 -186 -130 -202 -147 -7 -7 -18 -16 -25 -20 -21 -13 -67
-74 -67 -87 0 -7 12 -25 26 -40 20 -19 37 -26 65 -26 22 0 39 5 39 10 0 6 9
10 21 10 11 0 44 14 74 30 30 17 63 30 74 30 12 0 21 4 21 9 0 5 10 13 23 17
12 4 24 10 27 13 3 4 45 27 95 51 49 25 96 51 103 57 7 7 19 13 27 13 7 0 15
3 17 8 2 4 19 16 38 26 19 11 60 32 90 49 30 16 57 32 60 36 3 3 25 16 50 28
25 13 74 41 110 63 36 21 85 49 110 62 25 12 47 25 50 29 3 4 25 17 50 30 25
12 64 36 88 51 23 16 59 36 80 44 l37 15 -26 -23 c-14 -13 -44 -38 -67 -56
-84 -69 -87 -72 -87 -111 0 -21 7 -46 15 -56 22 -27 101 -16 191 28 95 46 129
59 129 49 0 -13 -15 -27 -42 -41 -14 -7 -40 -26 -58 -42 -17 -16 -34 -29 -36
-29 -3 0 -23 -19 -45 -42 -44 -47 -50 -85 -19 -113 33 -30 99 -15 230 54 63
33 135 70 160 83 25 13 47 26 50 29 3 4 23 17 45 28 22 12 47 26 55 31 156 96
300 173 300 160 0 -6 -8 -14 -17 -17 -10 -4 -27 -15 -38 -25 -11 -10 -30 -21
-42 -24 -13 -4 -23 -9 -23 -13 0 -3 -16 -15 -35 -25 -19 -11 -35 -23 -35 -27
0 -4 -10 -11 -22 -14 -13 -4 -46 -25 -75 -46 -29 -22 -55 -39 -58 -39 -8 0
-142 -101 -187 -142 -29 -26 -38 -41 -38 -67 0 -18 6 -39 14 -47 19 -18 86
-18 122 1 32 16 54 19 54 7 0 -7 -94 -72 -105 -72 -3 0 -30 -18 -60 -40 -30
-22 -58 -40 -64 -40 -5 0 -11 -3 -13 -7 -1 -5 -42 -34 -90 -66 -48 -31 -99
-68 -114 -82 -15 -14 -30 -25 -34 -25 -17 0 -110 -99 -110 -116 0 -11 9 -30
19 -44 26 -33 73 -30 158 10 37 17 84 39 103 48 19 10 37 20 40 23 3 3 19 13
35 21 74 38 167 90 240 135 11 7 43 24 70 39 28 14 57 32 65 39 8 6 46 29 84
51 114 65 151 87 156 93 3 3 19 13 35 21 26 13 49 26 130 78 11 6 27 15 35 19
8 4 42 24 76 45 34 21 64 38 67 38 4 0 29 14 55 30 56 34 76 39 41 10 -38 -32
-42 -34 -81 -55 -21 -11 -38 -22 -38 -26 0 -4 -8 -9 -17 -13 -24 -8 -101 -53
-140 -82 -17 -13 -35 -24 -39 -24 -4 0 -21 -10 -38 -23 -17 -13 -85 -56 -151
-97 -66 -41 -121 -78 -123 -82 -2 -4 -7 -8 -12 -8 -11 0 -204 -131 -241 -164
-16 -14 -31 -26 -34 -26 -3 0 -14 -9 -25 -20 -31 -31 -34 -62 -10 -93 36 -45
60 -40 240 48 50 24 130 67 186 100 27 16 67 39 89 51 66 34 88 48 103 61 7 7
17 13 22 13 7 0 126 69 190 110 8 6 22 13 30 17 8 4 17 9 20 13 6 7 88 50 96
50 3 0 -1 -7 -10 -15 -8 -8 -19 -15 -25 -15 -6 0 -11 -4 -11 -9 0 -5 -23 -24
-52 -41 -28 -18 -58 -38 -65 -46 -8 -8 -21 -14 -29 -14 -8 0 -14 -4 -14 -10 0
-5 -7 -10 -15 -10 -8 0 -15 -3 -15 -7 0 -5 -21 -20 -48 -35 -26 -15 -57 -36
-69 -47 -12 -12 -25 -21 -28 -21 -5 0 -37 -26 -94 -77 -20 -18 -39 -33 -43
-33 -5 0 -8 -15 -8 -34 0 -27 7 -39 29 -55 16 -12 34 -21 41 -21 16 0 242 111
258 127 7 7 17 13 22 13 5 0 38 18 72 40 35 22 69 40 76 40 6 0 12 5 12 10 0
6 4 10 10 10 5 0 61 32 124 70 63 39 119 70 125 70 6 0 11 4 11 9 0 5 11 12
25 15 14 4 25 11 25 16 0 6 6 10 14 10 8 0 16 3 18 8 2 4 24 18 51 32 26 13
47 28 47 32 0 5 4 8 10 8 5 0 39 18 75 40 36 22 70 40 75 40 6 0 10 4 10 8 0
5 21 19 48 32 26 12 61 33 79 46 17 13 36 24 42 24 6 0 11 5 11 10 0 6 5 10
11 10 6 0 80 43 165 95 85 52 158 95 163 95 5 0 14 7 21 15 7 8 19 15 27 15
13 0 13 -3 3 -15 -7 -8 -17 -15 -22 -15 -5 0 -21 -11 -36 -25 -15 -14 -35 -25
-44 -25 -10 0 -18 -4 -18 -9 0 -9 -63 -53 -120 -84 -19 -11 -37 -22 -40 -26
-6 -7 -40 -29 -60 -38 -8 -4 -17 -9 -20 -12 -9 -11 -122 -84 -150 -97 -8 -4
-17 -10 -20 -14 -3 -3 -30 -21 -60 -40 -30 -19 -66 -45 -80 -57 -14 -13 -28
-23 -33 -23 -12 0 -186 -129 -234 -174 -48 -44 -54 -75 -23 -108 31 -34 78
-25 208 39 64 31 123 63 130 70 7 7 20 13 28 13 8 0 14 3 14 8 0 4 13 13 29
20 16 7 39 22 51 32 13 11 31 20 42 20 10 0 18 3 18 8 0 9 110 75 116 69 4 -4
-6 -13 -78 -67 -15 -11 -71 -50 -125 -86 -54 -37 -99 -70 -101 -75 -2 -5 -10
-9 -18 -9 -8 0 -14 -4 -14 -8 0 -5 -9 -13 -19 -18 -10 -5 -46 -33 -80 -63 -53
-46 -61 -58 -61 -89 0 -69 60 -80 155 -27 33 18 78 43 100 54 22 12 63 35 90
51 28 17 57 34 65 37 8 4 17 10 20 13 3 4 30 21 60 37 115 62 125 68 130 74 8
9 93 58 113 65 9 4 17 10 17 14 0 5 10 12 22 16 24 7 94 51 116 71 7 7 20 13
28 13 8 0 27 11 42 25 15 14 33 25 40 25 7 0 18 5 25 10 22 20 143 95 197 124
30 16 60 35 66 42 6 8 16 14 21 14 6 0 27 12 49 26 21 14 52 34 68 43 45 24
324 190 371 220 22 14 63 37 90 52 98 52 119 64 133 76 7 7 20 13 28 13 8 0
14 3 14 8 0 4 20 16 45 27 25 11 45 23 45 27 0 5 11 8 23 8 50 0 76 70 39 103
-23 21 -71 22 -109 3 -15 -8 -35 -18 -43 -21 -8 -3 -46 -23 -85 -45 -38 -22
-81 -46 -95 -52 -14 -7 -27 -15 -30 -18 -10 -10 -45 -31 -62 -36 -10 -4 -18
-10 -18 -15 0 -5 -6 -9 -13 -9 -8 0 -32 -12 -53 -27 -53 -37 -99 -63 -114 -63
-15 0 56 60 107 91 21 13 40 27 41 31 2 4 10 8 18 8 8 0 14 4 14 9 0 5 24 24
53 41 28 18 54 35 57 39 3 3 28 22 55 40 28 19 52 38 55 41 3 3 24 21 48 39
56 43 77 83 61 114 -16 29 -28 37 -61 37 -28 0 -34 7 -20 25 8 12 106 75 116
75 4 0 17 9 29 21 12 11 40 30 61 41 22 11 45 25 53 32 31 27 73 55 96 62 9 4
17 10 17 14 0 5 10 12 22 16 12 3 33 17 47 30 14 13 30 24 36 24 6 0 22 10 36
23 27 24 56 43 79 54 8 4 17 9 20 12 3 4 30 23 60 44 104 70 180 142 180 169
0 27 -17 56 -41 69 -26 13 -84 -6 -216 -72 -93 -47 -121 -50 -60 -7 41 29 68
46 87 55 8 4 17 10 20 14 3 3 21 15 40 26 44 23 240 154 258 171 8 6 23 17 35
24 12 6 31 19 42 29 11 9 39 34 63 54 58 51 55 107 -8 127 -31 10 -134 -32
-295 -121 -33 -19 -82 -45 -110 -60 -27 -14 -52 -28 -55 -31 -8 -8 -42 -28
-90 -52 -25 -13 -51 -29 -58 -35 -7 -7 -20 -13 -28 -13 -8 0 -14 -3 -14 -7 0
-5 -18 -17 -40 -27 -22 -11 -40 -23 -40 -28 0 -4 -5 -8 -11 -8 -7 0 -33 -13
-58 -29 -26 -15 -58 -32 -71 -36 -21 -7 -22 -6 -9 7 8 8 59 45 113 82 150 103
159 109 183 134 12 12 25 22 29 22 3 0 19 15 35 33 36 40 35 81 -2 109 -25 19
-27 19 -80 2 -50 -17 -108 -45 -264 -130 -33 -18 -88 -47 -122 -65 -35 -18
-63 -36 -63 -40 0 -4 -10 -11 -21 -14 -12 -4 -49 -25 -83 -46 -33 -21 -67 -39
-73 -39 -7 0 -13 -4 -13 -10 0 -5 -6 -10 -14 -10 -8 0 -21 -6 -28 -13 -11 -10
-40 -27 -83 -46 -5 -2 -2 3 7 12 9 10 19 17 22 17 3 0 17 11 32 25 15 14 32
25 38 25 6 0 23 11 38 25 15 14 30 25 34 25 10 0 108 63 112 72 2 5 10 8 17 8
8 0 20 6 27 13 7 6 29 21 48 31 19 11 40 25 46 30 6 6 20 16 30 23 140 91 264
197 264 224 -1 8 -10 25 -21 39 -16 19 -29 24 -61 23 -22 -1 -46 -7 -54 -14
-8 -6 -17 -9 -21 -6 -8 9 16 37 42 48 11 5 40 23 65 39 25 17 53 33 63 36 9 4
17 10 17 14 0 4 8 10 18 14 20 6 50 25 70 44 7 6 20 12 28 12 8 0 14 4 14 8 0
5 17 17 37 28 21 10 46 27 56 36 11 9 47 33 81 54 33 21 63 40 66 44 3 3 21
16 40 27 19 12 44 30 55 40 11 10 37 31 58 46 88 66 106 106 64 145 -33 31
-90 26 -164 -16 -12 -7 -28 -12 -37 -12 -8 0 -16 -3 -18 -7 -4 -11 -125 -73
-142 -73 -8 0 -16 -6 -19 -14 -3 -8 -22 -20 -41 -27 -20 -7 -36 -17 -36 -21 0
-4 -6 -8 -14 -8 -8 0 -21 -6 -28 -12 -7 -7 -33 -23 -58 -36 -48 -24 -82 -44
-90 -52 -7 -7 -88 -51 -127 -69 -18 -8 -33 -19 -33 -23 0 -4 -7 -8 -17 -8 -22
0 29 44 85 72 23 12 42 25 42 30 0 4 7 8 15 8 8 0 15 5 15 10 0 6 6 10 14 10
8 0 21 6 28 13 20 18 50 37 71 43 9 4 17 10 17 14 0 4 11 11 25 14 14 4 25 11
25 16 0 6 7 10 15 10 8 0 15 4 15 9 0 5 10 13 22 17 12 3 33 17 47 30 14 13
30 24 36 24 6 0 22 11 36 24 14 13 35 27 47 30 12 4 22 12 22 17 0 5 4 9 10 9
6 0 18 8 28 17 10 10 33 31 51 47 29 25 33 33 28 63 -9 55 -53 78 -97 51 -23
-15 -38 -4 -19 14 20 19 117 78 129 78 6 0 10 4 10 10 0 5 11 12 25 16 14 3
25 10 25 15 0 5 6 9 14 9 8 0 16 3 18 8 5 10 66 52 77 52 5 0 11 3 13 8 2 4
28 23 58 42 30 19 57 37 60 40 3 4 21 15 40 26 19 10 43 28 55 40 11 12 30 24
43 28 12 4 22 12 22 17 0 5 4 9 10 9 5 0 31 21 57 46 37 36 47 53 47 79 0 18
-8 40 -18 50 -22 22 -80 22 -122 0 -16 -8 -35 -15 -41 -15 -7 0 -13 -3 -13 -7
0 -11 -90 -47 -97 -39 -4 3 -4 7 -2 9 2 1 45 29 94 62 222 146 335 242 335
285 0 24 -42 70 -64 70 -23 0 -90 -26 -181 -71 -45 -21 -86 -39 -93 -39 -7 0
-12 -4 -12 -10 0 -5 -6 -10 -14 -10 -7 0 -19 -7 -26 -15 -7 -8 -21 -15 -31
-15 -11 0 -19 -4 -19 -10 0 -5 -6 -10 -14 -10 -8 0 -21 -6 -28 -12 -8 -7 -29
-21 -48 -32 -73 -39 -146 -80 -182 -103 -21 -12 -40 -23 -43 -23 -3 0 -31 -16
-61 -35 -30 -19 -57 -35 -60 -35 -4 0 -39 -20 -78 -45 -40 -25 -78 -45 -84
-45 -7 0 -12 -3 -12 -8 0 -4 -17 -16 -37 -27 -21 -11 -44 -26 -51 -32 -7 -7
-18 -13 -23 -13 -5 0 -31 -13 -57 -30 -52 -32 -84 -41 -60 -17 7 8 18 16 23
18 25 10 251 165 258 176 4 7 12 13 18 13 24 0 139 117 139 142 0 28 -50 70
-75 63 -11 -3 -33 -8 -50 -12 -16 -3 -32 -9 -35 -12 -9 -11 -100 -51 -115 -51
-8 0 -15 -4 -15 -10 0 -5 -4 -10 -10 -10 -23 0 -6 18 54 58 35 23 68 42 73 42
4 0 26 14 47 30 22 17 43 30 47 30 8 0 97 58 109 70 3 3 22 14 43 25 20 11 37
23 37 27 0 5 7 8 15 8 8 0 15 4 15 10 0 5 11 12 25 16 14 3 25 10 25 15 0 5 6
9 14 9 8 0 16 3 18 8 2 4 28 24 59 45 81 55 149 121 149 144 0 11 -9 32 -21
47 -16 20 -29 26 -59 26 -21 0 -42 -4 -45 -10 -3 -5 -12 -10 -20 -10 -15 0
-135 -52 -175 -76 -27 -16 -130 -64 -137 -64 -6 0 19 22 39 35 73 46 187 127
198 140 7 8 17 15 21 15 13 0 77 59 101 92 18 26 18 30 4 50 -27 39 -55 48
-99 32 -22 -8 -48 -14 -57 -14 -10 0 -20 -3 -22 -7 -5 -12 -119 -70 -151 -77
l-29 -7 35 31 c19 16 37 30 41 30 8 0 100 64 104 73 2 4 10 7 18 7 8 0 14 4
14 9 0 5 16 20 36 32 59 36 124 107 124 133 0 36 -54 78 -88 70 -15 -4 -31
-10 -37 -14 -5 -4 -30 -15 -55 -24 -47 -18 -211 -97 -220 -106 -3 -3 -20 -13
-38 -22 -17 -10 -47 -26 -64 -35 -18 -10 -34 -21 -36 -25 -2 -5 -8 -8 -14 -8
-6 0 -33 -13 -60 -30 -26 -16 -55 -30 -63 -30 -8 0 -15 -4 -15 -10 0 -5 -5
-10 -10 -10 -6 0 -29 -13 -52 -30 -22 -17 -49 -30 -60 -30 -10 0 -18 -3 -18
-8 0 -4 -17 -16 -37 -27 -21 -11 -44 -26 -51 -32 -7 -7 -18 -13 -23 -13 -5 0
-49 -25 -97 -55 -49 -30 -94 -55 -100 -55 -7 0 -12 -4 -12 -8 0 -5 -17 -17
-37 -28 -21 -10 -66 -36 -101 -57 -36 -21 -66 -36 -68 -34 -6 6 78 70 119 91
20 10 37 22 37 26 0 4 8 10 18 14 20 6 50 25 70 44 7 6 19 12 27 12 7 0 15 4
17 8 2 6 111 83 166 117 26 16 68 59 80 82 15 27 -2 80 -29 88 -11 4 -34 4
-52 0 -34 -7 -132 -50 -157 -70 -8 -7 -30 -15 -48 -18 -29 -6 -25 -1 34 38 37
25 71 45 75 45 5 0 9 5 9 10 0 6 5 10 11 10 12 0 144 79 195 117 17 13 36 23
42 23 7 0 12 3 12 8 0 4 20 18 45 32 25 14 45 28 45 32 0 5 7 8 15 8 8 0 15 4
15 9 0 5 10 13 23 17 12 4 24 10 27 13 9 12 88 71 94 71 3 0 26 21 51 46 53
54 58 87 18 121 -31 27 -33 27 -75 9 -18 -8 -51 -22 -73 -31 -38 -16 -185 -88
-305 -151 -30 -16 -56 -32 -58 -36 -2 -5 -8 -8 -14 -8 -6 0 -39 -18 -74 -40
-35 -22 -68 -40 -73 -40 -5 0 -16 -6 -23 -13 -7 -6 -31 -21 -53 -32 -22 -11
-53 -30 -70 -42 -35 -25 -145 -83 -158 -83 -15 0 16 25 119 96 103 70 194 147
194 163 0 5 6 11 13 14 17 6 -20 75 -45 83 -28 9 -77 -3 -136 -31 -29 -14 -59
-25 -67 -25 -8 0 -15 -4 -15 -10 0 -5 -6 -10 -13 -10 -12 0 -100 -43 -144 -71
-32 -19 -42 -1 -13 23 59 46 87 75 104 104 18 30 18 32 0 60 -26 41 -34 44
-79 37 -37 -6 -39 -5 -23 10 9 10 21 17 27 17 6 0 11 4 11 9 0 5 11 12 25 15
14 4 25 11 25 16 0 6 7 10 15 10 8 0 15 4 15 10 0 5 11 12 25 16 14 3 25 10
25 14 0 4 8 10 18 14 20 6 50 25 70 44 7 6 18 12 23 12 5 0 20 9 32 21 12 11
31 25 42 30 54 26 302 195 355 243 17 14 33 26 37 26 14 1 63 78 63 99 0 57
-62 76 -150 45 -59 -20 -214 -96 -218 -106 -4 -9 -32 -11 -32 -3 0 7 39 45 46
45 24 0 184 151 184 173 0 29 -22 65 -44 71 -33 8 -156 -28 -156 -46 0 -4 -6
-8 -14 -8 -12 0 -53 -20 -141 -68 -16 -10 -32 -19 -35 -22 -3 -3 -32 -19 -65
-36 -33 -17 -104 -56 -157 -88 -54 -31 -100 -56 -103 -56 -2 0 -33 -18 -67
-40 -35 -22 -69 -40 -75 -40 -7 0 -13 -4 -13 -9 0 -5 -8 -11 -17 -15 -10 -3
-40 -20 -68 -36 -27 -17 -61 -36 -75 -43 -14 -6 -27 -14 -30 -17 -6 -7 -35
-24 -85 -51 -22 -11 -42 -24 -45 -28 -3 -3 -23 -15 -45 -26 -22 -11 -42 -22
-45 -26 -10 -11 -111 -69 -120 -69 -6 0 -10 -4 -10 -10 0 -5 -11 -12 -25 -16
-14 -3 -25 -10 -25 -15 0 -5 -5 -9 -12 -9 -6 0 -19 -6 -27 -14 -9 -8 -29 -18
-46 -22 l-30 -7 30 24 c17 13 32 27 33 31 2 5 10 8 18 8 8 0 14 4 14 9 0 5 10
13 23 17 12 4 24 9 27 13 9 10 100 71 108 71 4 0 25 16 47 35 22 19 43 35 46
35 3 0 17 10 31 23 14 12 39 33 56 47 17 14 31 31 32 38 0 6 5 12 10 12 6 0
10 11 10 24 0 31 -46 76 -78 76 -21 0 -22 2 -12 15 7 8 18 15 25 15 8 0 15 3
17 8 5 11 103 72 116 72 7 0 12 5 12 10 0 6 5 10 11 10 8 0 165 97 204 127 6
4 27 17 48 27 20 11 37 23 37 28 0 4 5 8 12 8 13 0 111 61 116 72 2 5 8 8 12
8 5 0 53 30 106 66 54 36 104 69 113 72 9 3 18 9 21 12 3 4 39 32 80 62 90 66
111 85 133 118 23 34 21 57 -8 86 -26 26 -56 27 -110 4 -11 -4 -38 -16 -60
-25 -65 -27 -355 -174 -365 -185 -3 -3 -16 -11 -30 -17 -14 -7 -47 -26 -75
-42 -27 -16 -61 -36 -75 -44 -14 -7 -51 -28 -82 -45 -32 -18 -58 -29 -58 -25
0 12 28 34 95 76 33 20 72 47 87 59 14 13 40 34 57 48 25 20 31 32 31 64 0 44
-20 65 -60 66 -25 0 -96 -22 -128 -40 -9 -5 -47 -23 -84 -40 -37 -16 -69 -34
-73 -40 -3 -5 -13 -10 -21 -10 -8 0 -32 -11 -53 -25 -22 -13 -52 -27 -67 -31
-28 -7 -28 -7 8 24 19 18 39 32 43 32 4 0 31 23 61 52 46 44 54 57 54 89 0 28
-6 40 -25 53 -13 9 -30 16 -37 16 -16 0 -151 -52 -158 -61 -3 -3 -25 -16 -50
-28 -25 -13 -65 -33 -90 -47 -25 -13 -51 -24 -57 -24 -7 0 -13 -4 -13 -10 0
-5 -7 -10 -15 -10 -8 0 -15 -4 -15 -9 0 -5 -10 -13 -22 -17 -13 -4 -25 -9 -28
-13 -3 -3 -21 -14 -40 -24 -68 -36 -95 -52 -108 -64 -7 -7 -18 -13 -23 -13 -5
0 -31 -13 -57 -30 -27 -16 -58 -30 -68 -30 -14 0 -9 6 16 21 19 12 37 25 38
30 2 5 9 9 16 9 7 0 38 18 70 40 31 22 61 40 66 40 6 0 10 5 10 10 0 6 6 10
14 10 8 0 21 6 28 13 7 6 47 35 88 62 41 28 77 53 78 58 2 4 8 7 13 7 21 0
136 108 143 135 7 25 -32 76 -59 77 -27 1 -140 -41 -199 -75 -27 -15 -54 -27
-61 -27 -8 0 -15 -3 -17 -7 -4 -10 -66 -43 -79 -43 -21 0 6 23 104 87 213 139
297 211 297 254 0 35 -29 59 -73 59 -37 0 -160 -54 -272 -119 -70 -42 -125
-72 -160 -89 -16 -8 -44 -25 -62 -38 -17 -13 -34 -24 -38 -24 -3 0 -34 -18
-69 -40 -35 -22 -68 -40 -75 -40 -6 0 -11 -4 -11 -9 0 -5 -11 -12 -25 -15 -14
-4 -25 -11 -25 -16 0 -6 -5 -10 -11 -10 -7 0 -39 -17 -73 -37 -34 -21 -71 -43
-81 -50 -11 -7 -42 -24 -70 -39 -27 -14 -59 -35 -71 -45 -11 -10 -23 -19 -27
-19 -4 0 -65 -36 -137 -80 -72 -44 -135 -80 -140 -80 -6 0 -10 -4 -10 -10 0
-5 -11 -12 -25 -16 -14 -3 -25 -10 -25 -14 0 -4 -11 -11 -25 -14 -14 -4 -25
-11 -25 -16 0 -6 -7 -10 -15 -10 -8 0 -15 -4 -15 -10 0 -5 -5 -10 -12 -10 -6
0 -44 -20 -84 -45 -39 -25 -77 -45 -83 -45 -6 0 -11 -4 -11 -8 0 -5 -19 -18
-42 -31 -53 -27 -81 -44 -88 -52 -3 -4 -15 -9 -27 -13 -13 -4 -23 -12 -23 -17
0 -5 -7 -9 -15 -9 -8 0 -15 -4 -15 -9 0 -5 -10 -13 -22 -17 -12 -3 -79 -42
-149 -85 -70 -44 -132 -79 -138 -79 -6 0 -11 -3 -11 -8 0 -4 -17 -16 -37 -27
-21 -11 -44 -26 -51 -32 -7 -7 -20 -13 -28 -13 -8 0 -14 -4 -14 -9 0 -5 -8
-11 -17 -15 -10 -3 -31 -15 -48 -26 -16 -11 -38 -23 -47 -26 -10 -4 -18 -10
-18 -15 0 -5 -5 -9 -11 -9 -6 0 -31 -13 -56 -30 -24 -16 -51 -30 -59 -30 -7 0
-14 -4 -14 -8 0 -5 -17 -17 -37 -28 -21 -10 -40 -21 -43 -25 -10 -11 -111 -69
-120 -69 -6 0 -10 -4 -10 -8 0 -9 -81 -52 -99 -52 -6 0 -11 -4 -11 -10 0 -5
-11 -12 -25 -16 -14 -3 -25 -10 -25 -14 0 -4 -9 -10 -20 -13 -29 -7 -25 -2 15
23 20 12 41 27 48 34 6 7 33 23 60 36 26 13 47 27 47 32 0 4 7 8 15 8 8 0 15
4 15 10 0 5 11 12 25 16 14 3 25 10 25 15 0 5 5 9 11 9 6 0 28 12 48 28 20 15
52 36 71 46 19 11 37 22 40 25 9 10 44 31 63 37 9 4 17 10 17 14 0 4 11 11 25
14 14 4 25 11 25 16 0 6 7 10 15 10 8 0 15 4 15 10 0 5 11 12 25 16 14 3 25
10 25 14 0 4 11 11 25 14 14 4 25 11 25 16 0 6 7 10 15 10 8 0 15 4 15 9 0 5
10 13 22 17 12 3 57 31 100 60 43 30 82 54 88 54 5 0 10 4 10 9 0 5 8 11 18
15 20 6 50 25 70 44 7 6 20 12 28 12 8 0 14 4 14 9 0 5 8 11 18 15 17 5 52 26
62 36 11 11 99 70 104 70 3 0 25 13 48 29 24 16 84 55 133 87 50 32 92 61 95
64 3 4 36 26 73 50 98 61 197 148 197 173 -1 59 -46 85 -114 65 -23 -7 -81
-34 -131 -60 -49 -27 -110 -58 -135 -71 -25 -12 -46 -25 -48 -29 -5 -11 -32
-10 -32 1 0 5 8 12 18 15 9 3 31 17 47 31 51 42 83 63 108 71 9 4 17 10 17 13
0 4 21 23 47 42 54 38 72 55 96 89 22 31 21 52 -2 78 -27 32 -83 28 -155 -8
-32 -17 -68 -29 -80 -29 -17 1 -18 2 -3 6 9 2 17 8 17 11 0 4 17 16 38 27 20
11 39 22 42 26 3 3 39 27 80 54 41 27 77 51 80 55 3 4 21 15 40 26 19 10 46
29 60 42 14 12 33 25 43 28 9 3 17 10 17 15 0 5 5 9 11 9 6 0 16 6 24 13 7 6
27 23 45 37 54 42 76 65 83 84 11 29 -3 66 -32 80 -24 13 -32 12 -81 -10z
m877 -1860 c-3 -3 -12 -4 -19 -1 -8 3 -5 6 6 6 11 1 17 -2 13 -5z m-358 -932
c279 -18 357 -40 445 -125 46 -44 106 -143 106 -174 0 -11 4 -23 9 -28 10 -11
21 -94 47 -355 13 -131 15 -224 10 -450 -4 -157 -11 -314 -16 -350 -5 -36 -14
-110 -20 -165 -6 -55 -15 -101 -20 -103 -6 -2 -10 -15 -10 -28 0 -34 -53 -139
-87 -173 -36 -35 -108 -82 -152 -98 -19 -6 -71 -15 -115 -18 -45 -3 -124 -10
-176 -15 -257 -26 -1071 -40 -1430 -25 -365 15 -639 39 -698 60 -40 14 -81 34
-92 45 -42 42 -46 43 -97 15 -26 -15 -55 -32 -63 -39 -8 -6 -33 -20 -55 -31
-22 -10 -54 -29 -72 -42 -17 -13 -34 -23 -37 -23 -3 0 -35 -18 -71 -40 -36
-22 -69 -40 -74 -40 -5 0 -11 -7 -15 -15 -3 -8 -12 -15 -21 -15 -9 0 -29 -9
-45 -20 -17 -11 -43 -29 -60 -40 -16 -11 -36 -20 -45 -20 -8 0 -15 -4 -15 -10
0 -5 -5 -10 -10 -10 -6 0 -29 -13 -52 -30 -22 -16 -49 -30 -60 -30 -10 0 -18
-4 -18 -10 0 -5 -11 -12 -25 -16 -14 -3 -25 -10 -25 -15 0 -5 -6 -9 -14 -9 -7
0 -19 -7 -26 -15 -7 -8 -20 -15 -29 -15 -9 0 7 14 34 32 28 17 52 35 53 39 2
5 8 9 12 9 5 0 50 25 100 55 50 30 95 55 100 55 4 0 10 4 12 8 4 10 105 72
118 72 6 0 10 3 10 8 0 4 17 16 38 27 20 10 76 43 123 72 47 29 91 53 98 53 6
0 11 4 11 10 0 5 11 12 25 16 14 3 25 10 25 14 0 4 12 12 28 18 15 5 37 18 49
28 l23 19 -30 44 c-17 25 -33 56 -36 70 -3 15 -9 35 -14 46 -11 25 -25 118
-47 300 -23 195 -23 714 0 870 34 234 39 261 47 280 4 11 14 40 21 64 7 24 18
49 24 55 5 6 17 24 25 40 16 31 94 92 150 118 71 33 142 41 470 54 85 4 157 9
160 11 9 9 1334 -5 1499 -15z m-1179 -2126 c0 -3 -4 -8 -10 -11 -5 -3 -10 -1
-10 4 0 6 5 11 10 11 6 0 10 -2 10 -4z m-60 -36 c0 -5 -5 -10 -11 -10 -5 0 -7
5 -4 10 3 6 8 10 11 10 2 0 4 -4 4 -10z m-66 -44 c-21 -15 -30 -14 -19 3 3 6
14 11 23 11 13 0 13 -2 -4 -14z m-65 -33 c0 -10 -97 -73 -111 -73 -13 0 11 22
57 53 42 27 55 32 54 20z m-154 -98 c-16 -13 -35 -24 -41 -25 -6 0 -17 -7 -24
-15 -14 -17 -30 -20 -30 -4 0 5 4 8 9 5 5 -4 11 -2 13 2 4 11 80 61 93 61 6 1
-3 -10 -20 -24z m-131 -80 c-32 -26 -74 -46 -74 -36 0 5 6 12 13 15 6 3 26 15
42 25 34 21 48 18 19 -4z m-164 -95 c0 -5 -5 -10 -11 -10 -5 0 -7 5 -4 10 3 6
8 10 11 10 2 0 4 -4 4 -10z"/>
<path d="M3830 4195 c0 -534 -9 -485 79 -437 56 31 252 133 381 198 52 27 97
52 100 55 3 4 16 10 30 14 14 4 27 11 30 14 3 4 25 15 50 26 25 11 47 22 50
25 3 3 28 16 55 30 28 14 52 28 53 33 2 4 10 7 18 7 18 0 64 29 64 40 0 5 -10
12 -22 16 -13 4 -25 10 -28 13 -5 6 -134 74 -247 129 -27 13 -49 28 -51 33 -2
5 -9 9 -15 9 -7 0 -25 7 -42 16 -16 9 -92 48 -168 88 -76 39 -170 87 -209 108
-38 20 -75 41 -81 47 -6 6 -19 11 -29 11 -17 0 -18 -24 -18 -475z"/>
</g>
</svg>
