<svg xmlns="http://www.w3.org/2000/svg" width="72.397" height="72.394" viewBox="0 0 72.397 72.394"><defs><style>.a{fill:#b1ffff;}.b{fill:#2a78b2;}</style></defs><g transform="translate(6.478 18.315)"><path class="a" d="M45.81,133.987a8.7,8.7,0,0,1,15.182,0Z" transform="translate(-45.81 -129.532)"/><path class="a" d="M358.81,446.929a8.7,8.7,0,0,1,15.184,0Z" transform="translate(-314.552 -398.223)"/></g><g transform="translate(0 0)"><path class="b" d="M18.611,13.7a7.6,7.6,0,1,0-9.084,0C4.112,15.557,0,20.346,0,28.153H28.139C28.139,20.456,24.129,15.592,18.611,13.7Zm-9.88-6.09a5.338,5.338,0,1,1,5.338,5.338A5.338,5.338,0,0,1,8.731,7.614ZM2.316,25.89a11.807,11.807,0,0,1,23.506,0Z" transform="translate(0 -0.01)"/><path class="b" d="M331.611,326.654a7.6,7.6,0,1,0-9.084,0C317.112,328.507,313,333.3,313,341.1h28.139C341.139,333.406,337.129,328.541,331.611,326.654Zm-9.88-6.09a5.338,5.338,0,1,1,5.338,5.338A5.338,5.338,0,0,1,321.731,320.564Zm-6.415,18.276a11.807,11.807,0,0,1,23.506,0Z" transform="translate(-268.742 -268.708)"/><path class="b" d="M93.762,231.04H91.5v30.543h26.8V259.32H93.762Z" transform="translate(-78.562 -198.372)"/><path class="b" d="M255.533,95.583H257.8V65.04H231V67.3h24.533Z" transform="translate(-198.336 -55.845)"/></g></svg>