<svg xmlns="http://www.w3.org/2000/svg" width="56.136" height="72.397" viewBox="0 0 56.136 72.397"><defs><style>.a{fill:#b1ffff;}.b{fill:#2a78b2;}</style></defs><path class="a" d="M95.5,99.651V38h37.613V99.651Zm5.161-40.441h27.29V42.242h-27.29Z" transform="translate(-90.127 -32.627)"/><g transform="translate(0)"><path class="b" d="M129,82.816h28.139V65H129Zm2.262-15.554h23.614V80.554H131.262Z" transform="translate(-118.89 -55.809)"/><rect class="b" width="25.876" height="2.262" transform="translate(11.241 35.067)"/><rect class="b" width="25.876" height="2.262" transform="translate(11.241 40.723)"/><path class="b" d="M105.859,3.535V0H57.5V72.4h48.359V68.862h7.777V3.535Zm-2.262,66.6H59.762V2.262H103.6Zm7.777-3.535h-5.515V37.33h5.515Zm-5.515-31.532V5.8h5.515v29.27Z" transform="translate(-57.5)"/></g></svg>