<svg xmlns="http://www.w3.org/2000/svg" width="53.194" height="72.397" viewBox="0 0 53.194 72.397"><defs><style>.a{fill:#b1ffff;}.b{fill:#2a78b2;}</style></defs><rect class="a" width="41.382" height="30.806" transform="translate(5.906 35.685)"/><g transform="translate(0 0)"><path class="b" d="M115.806,29.779V24.491h-5.288v-8.47a16.021,16.021,0,0,0-32.041,0V29.779H67.9V72.4h53.195V29.779Zm-2.262,0H105.23V26.753h8.314Zm-32.8-13.758a13.758,13.758,0,0,1,27.517,0v8.47h-5.288v5.288H80.739Zm38.093,54.114H70.162V32.041h48.67Z" transform="translate(-67.9 0)"/><path class="b" d="M228.6,305.819h-1.79a1.555,1.555,0,0,1,0-3.111h4.475v-2.262h-2.449V298h-2.262v2.456a3.818,3.818,0,0,0,.236,7.624h1.79a1.555,1.555,0,0,1,0,3.111h-4.475v2.262h2.449V315.9h2.262v-2.459a3.818,3.818,0,0,0-.236-7.624Z" transform="translate(-201.105 -255.863)"/></g></svg>