<svg xmlns="http://www.w3.org/2000/svg" width="72.397" height="72.397" viewBox="0 0 72.397 72.397"><defs><style>.a{fill:#b1ffff;}.b{fill:#2a78b2;}</style></defs><rect class="a" width="52.46" height="17.392" transform="translate(9.969 40.441)"/><path class="b" d="M67.8,60.944V35.067H47.653L45.54,26.786a15.024,15.024,0,1,0-18.7,0l-2.1,8.282H4.6V60.944H0V72.4H72.4V60.944ZM65.54,37.33V60.944H54.259L48.237,37.33ZM51.923,60.944H20.476L26.5,37.33H45.9ZM23.438,15.024a12.761,12.761,0,1,1,25.523,0c0,4.092-1.775,7.835-5.983,10.841l2.347,9.2H27.074l2.347-9.2C25.206,22.855,23.438,19.108,23.438,15.024ZM6.859,37.33h17.3L18.14,60.944H6.859S6.859,37.33,6.859,37.33Zm63.277,32.8H2.263V63.206H70.136Z" transform="translate(-0.001 0)"/></svg>