<svg xmlns="http://www.w3.org/2000/svg" width="72.397" height="72.397" viewBox="0 0 72.397 72.397"><defs><style>.a{fill:#2a78b2;}.b{fill:#b1ffff;}</style></defs><path class="a" d="M33.581,104.165A33.563,33.563,0,0,1,0,70.584C0,53.292,13.328,37,34.712,37V55.49c-10.653,0-16.226,7.619-16.226,15.095A15.112,15.112,0,0,0,33.581,85.677c7.407,0,15.095-5.481,15.095-16.226h18.49C67.165,90.708,50.978,104.165,33.581,104.165ZM32.45,39.285a31.319,31.319,0,0,0,1.1,62.618h.034a31.3,31.3,0,0,0,31.3-30.188H50.9A17.357,17.357,0,1,1,32.45,53.261Z" transform="translate(0 -31.768)"/><path class="b" d="M66.208,133.368a28.209,28.209,0,0,1-4.242-56.1v7.865A20.469,20.469,0,1,0,86.233,109.4H94.1A28.23,28.23,0,0,1,66.208,133.368Z" transform="translate(-32.627 -66.344)"/><path class="a" d="M301.214,34.712H282.726c0-9.069-5.649-16.226-16.226-16.226V0C287.252,0,301.214,15.206,301.214,34.712ZM284.953,32.45h13.979A31.3,31.3,0,0,0,268.764,2.282V16.261A17.384,17.384,0,0,1,284.953,32.45Z" transform="translate(-228.817)"/></svg>