<svg xmlns="http://www.w3.org/2000/svg" width="72.397" height="70.936" viewBox="0 0 72.397 70.936"><defs><style>.a{fill:#b1ffff;}.b{fill:#2a78b2;}</style></defs><g transform="translate(13.866 5.546)"><path class="a" d="M103.169,54.6a5.109,5.109,0,1,1,5.109-5.109A5.109,5.109,0,0,1,103.169,54.6Z" transform="translate(-98.06 -44.385)"/><path class="a" d="M224.979,405.563a5.109,5.109,0,1,1,5.109-5.109A5.109,5.109,0,0,1,224.979,405.563Z" transform="translate(-202.646 -345.719)"/></g><g transform="translate(0 0)"><path class="b" d="M29.565,14.653a10.655,10.655,0,0,0-21.18,0H0v2.335H8.385a10.655,10.655,0,0,0,21.18,0H72.4V14.653ZM18.976,24.141a8.32,8.32,0,1,1,8.314-8.326v.006a8.33,8.33,0,0,1-8.316,8.319Z" transform="translate(0 -5.166)"/><path class="b" d="M72.4,190.133H64.012a10.655,10.655,0,0,0-21.18,0H0v2.336H42.832a10.655,10.655,0,0,0,21.18,0H72.4Zm-18.975,9.488a8.32,8.32,0,1,1,8.32-8.32h0A8.33,8.33,0,0,1,53.423,199.621Z" transform="translate(0 -155.834)"/><path class="b" d="M36.2,356.125a10.67,10.67,0,0,0-10.589,9.488H0v2.336H25.609a10.655,10.655,0,0,0,21.18,0H72.4v-2.336H46.788A10.67,10.67,0,0,0,36.2,356.125Zm0,18.975a8.32,8.32,0,1,1,8.32-8.32h0A8.33,8.33,0,0,1,36.2,375.1Z" transform="translate(0 -306.499)"/></g></svg>