<svg xmlns="http://www.w3.org/2000/svg" width="72.397" height="72.391" viewBox="0 0 72.397 72.391"><defs><style>.a{fill:#b1ffff;}.b{fill:#2a78b2;}</style></defs><path class="a" d="M120.332,142.691a22.34,22.34,0,1,1,22.34-22.34A22.365,22.365,0,0,1,120.332,142.691Zm0-40.071a17.736,17.736,0,1,0,17.736,17.739,17.736,17.736,0,0,0-17.736-17.739Z" transform="translate(-84.136 -84.156)"/><path class="b" d="M72.391,35.048H64.049A27.923,27.923,0,0,0,37.364,8.362V.02H35.028V8.362A27.923,27.923,0,0,0,8.342,35.048H0v2.336H8.342a27.919,27.919,0,0,0,26.689,26.7v8.332h2.336V64.079a27.917,27.917,0,0,0,26.689-26.7H72.4Zm-10.678,0H50.673a14.549,14.549,0,0,0-13.309-13.3V10.7A25.579,25.579,0,0,1,61.714,35.048Zm-26.686,0H24.065A12.209,12.209,0,0,1,35.028,24.092Zm0,2.336V48.355A12.209,12.209,0,0,1,24.063,37.384Zm2.336,0H48.328A12.209,12.209,0,0,1,37.364,48.355Zm0-2.336V24.092A12.209,12.209,0,0,1,48.327,35.048ZM35.028,10.7V21.746a14.549,14.549,0,0,0-13.309,13.3H10.678A25.579,25.579,0,0,1,35.028,10.7ZM10.676,37.384H21.717A14.549,14.549,0,0,0,35.028,50.7V61.742A25.581,25.581,0,0,1,10.676,37.384ZM37.364,61.742V50.7a14.549,14.549,0,0,0,13.31-13.318h11.04A25.579,25.579,0,0,1,37.364,61.742Z" transform="translate(0 -0.02)"/></svg>