<svg xmlns="http://www.w3.org/2000/svg" width="72.397" height="53.973" viewBox="0 0 72.397 53.973"><defs><style>.a{fill:#b1ffff;}.b{fill:#2a78b2;}</style></defs><path class="a" d="M38,180.978V143.45H99.651v37.528Zm13.111-18.393c-4.953,1.418-8.869,5.779-8.869,12.476H66.7c0-6.6-3.832-11.029-8.869-12.469a6.469,6.469,0,1,0-6.725,0Z" transform="translate(-32.627 -132.378)"/><g transform="translate(0 0)"><path class="b" d="M50.268,70.848v-5.7H22.129v5.7H0v48.274H72.4V70.848ZM24.392,67.412H48.005v3.436H24.392ZM70.135,116.86H2.262V73.111H70.135Z" transform="translate(0 -65.15)"/><path class="b" d="M81.954,203.191a6.893,6.893,0,1,0-8.6,0C68.476,204.958,65,209.26,65,216.232H90.311C90.311,209.327,86.9,204.982,81.954,203.191Zm-8.929-5.383a4.631,4.631,0,1,1,4.631,4.631A4.631,4.631,0,0,1,73.024,197.808Zm-5.7,16.162a10.393,10.393,0,0,1,20.663,0Z" transform="translate(-55.809 -173.126)"/><rect class="b" width="23.048" height="2.262" transform="translate(39.027 24.66)"/><rect class="b" width="23.048" height="2.262" transform="translate(39.027 32.748)"/></g></svg>