<svg xmlns="http://www.w3.org/2000/svg" width="72.397" height="63.206" viewBox="0 0 72.397 63.206"><defs><style>.a{fill:#b1ffff;}.b{fill:#2a78b2;}</style></defs><path class="a" d="M38,70.5v31.25H99.651V70.5ZM54.507,97.94H48.464V85.418H54.5Zm17.339,0H65.8V74.309h6.039Zm17.339,0H83.144V80.972h6.043Z" transform="translate(-32.627 -65.127)"/><g transform="translate(0 0)"><path class="b" d="M0,32.5V86.515H28.3l-2.828,9.191H46.921l-2.828-9.191H72.4V32.5ZM43.858,93.444H28.539l2.132-6.929H41.726Zm26.276-9.191H2.262V74.5H70.135ZM2.262,72.234V34.762H70.135V72.234Z" transform="translate(0 -32.5)"/><path class="b" d="M226.64,115.333h8.3V89.44h-8.3v25.893ZM228.9,91.7h3.777v21.368H228.9V91.7Z" transform="translate(-194.593 -81.389)"/><path class="b" d="M104,182.785h8.3V168H104Zm2.262-12.522h3.777v10.254h-3.777Z" transform="translate(-89.294 -148.84)"/><path class="b" d="M349.26,155.79h8.306V136.56H349.26Zm2.262-16.968H355.3v14.706h-3.781Z" transform="translate(-299.874 -121.846)"/></g></svg>