<svg xmlns="http://www.w3.org/2000/svg" width="72.397" height="54.015" viewBox="0 0 72.397 54.015"><defs><style>.a{fill:#b1ffff;}.b{fill:#2a78b2;}</style></defs><path class="a" d="M90.6,188.583V171.05H47.05v17.534H38V162H99.651v26.583Z" transform="translate(-32.627 -148.284)"/><g transform="translate(0 0)"><path class="b" d="M72.4,73.343H54.863V65H17.534v8.343H0v37.33H17.534v8.343h37.33v-8.343H72.4Zm-52.6-6.08H52.6v6.08H19.8Zm32.8,49.49H19.8V93.139H52.6Zm17.534-8.343H54.863V90.876H17.534V108.41H2.262v-32.8H70.135Z" transform="translate(0 -65)"/><rect class="b" width="17" height="3" transform="translate(27.687 43.212)"/><rect class="b" width="17" height="2" transform="translate(27.687 35.212)"/><rect class="b" width="3.111" height="3.111" transform="translate(8.413 16.756)"/><rect class="b" width="3.111" height="3.111" transform="translate(16.426 16.756)"/></g></svg>