<svg xmlns="http://www.w3.org/2000/svg" width="70.804" height="72.397" viewBox="0 0 70.804 72.397"><defs><style>.a{fill:#b1ffff;}.b{fill:#2a78b2;}</style></defs><rect class="a" width="6.616" height="38.082" transform="translate(50.456 47.373) rotate(135)"/><path class="b" d="M76.439,72.4,72.11,58.164l-9.6-9.6,1.2-1.2L29.164,12.83l-1.2,1.2L21.278,7.341h0L25.414,3.2,38.006,15.8l1.6-1.6L25.414,0l-5.74,5.746L15.529,1.594,5.636,11.487,18.072,23.922l-1.2,1.2L51.415,59.664l1.2-1.2,9.6,9.6Zm-3.584-3.584-8.546-2.849,5.7-5.7ZM8.841,11.487,15.529,4.8l2.543,2.542-6.688,6.688Zm4.145,4.145,6.688-6.688,6.688,6.688-6.688,6.69Zm16.177.4,31.33,31.337-9.078,9.091L20.078,25.122ZM60.9,50.178l8,7.986L62.21,64.852l-8-8Z" transform="translate(-5.636)"/></svg>