<svg xmlns="http://www.w3.org/2000/svg" width="72.397" height="63.449" viewBox="0 0 72.397 63.449"><defs><style>.a{fill:#b1ffff;}.b{fill:#2a78b2;}</style></defs><path class="a" d="M38,284.867V258.93l30.825,13.905L99.651,258.93v25.937Z" transform="translate(-32.627 -226.791)"/><g transform="translate(0 0)"><path class="b" d="M63.206,50.277V41.743H50.841L36.2,31.64l-14.642,10.1H9.191v8.534L0,56.618V95.089H72.4V56.618ZM24.5,68.992,2.262,91.228V58.961Zm-8.343-6.247V50a3.522,3.522,0,0,0,2.187-2.187H54.062A3.523,3.523,0,0,0,56.249,50V62.745L36.2,71.789ZM26.7,69.991l9.5,4.282,9.5-4.282,22.84,22.836H3.862ZM47.9,69,70.135,58.961V91.228ZM68.97,57.013l-5.763,2.595V53.023ZM36.2,34.389l10.659,7.353H25.54ZM11.453,44h49.49V60.627l-2.433,1.1V47.932c-1.98,0-2.374.157-2.374-2.374H16.261c0,2.516-.383,2.374-2.374,2.374v13.8l-2.434-1.1Zm-2.262,15.6-5.768-2.6,5.768-3.983Z" transform="translate(0 -31.64)"/><path class="b" d="M226.322,180.159h5.639V177.9h-2.254V176.49h-2.262V177.9H224.06v6.493h6.77v1.968h-5.639v2.262h2.254v1.407h2.262v-1.407h3.385v-6.493h-6.77Z" transform="translate(-192.378 -156.008)"/></g></svg>