<svg xmlns="http://www.w3.org/2000/svg" width="72.397" height="72.397" viewBox="0 0 72.397 72.397"><defs><style>.a{fill:#b1ffff;}.b{fill:#2a78b2;}</style></defs><path class="a" d="M68.825,99.651a30.808,30.808,0,1,1,.034,0Z" transform="translate(-32.627 -32.627)"/><path class="b" d="M36.2,0A36.2,36.2,0,1,0,72.4,36.2,36.179,36.179,0,0,0,36.2,0Zm0,70.135A33.936,33.936,0,1,1,70.135,36.2,33.917,33.917,0,0,1,36.2,70.135Z"/><path class="b" d="M162.988,132.514a10.816,10.816,0,0,0,9.919-15.13h4.012v-2.262h-5.348a10.905,10.905,0,0,0-1.98-1.98h7.322V110.88H153.3v2.262h9.69a8.518,8.518,0,0,1,5.467,1.98H153.3v2.262h17.076a8.552,8.552,0,0,1-7.385,12.867H150.14L176.2,151.67l1.435-1.746-21.18-17.409Z" transform="translate(-128.91 -95.202)"/></svg>