<svg xmlns="http://www.w3.org/2000/svg" width="72.397" height="63.282" viewBox="0 0 72.397 63.282"><defs><style>.a{fill:#b1ffff;}.b{fill:#2a78b2;}</style></defs><path class="a" d="M38,254.6V223.77c3.211,3.773,7.334,8.625,11.347,13.357v7.281H88.3v-7.281c4.013-4.73,8.136-9.584,11.347-13.357V254.6Z" transform="translate(-32.627 -196.686)"/><path class="b" d="M63.206,46.715V32.23H9.191V46.715H0v48.8H72.4v-48.8ZM11.453,34.492h49.49V46.716H11.453ZM68.784,48.977C65.142,53.219,56.6,63.283,52.566,68.031V65.387H19.831v2.644C15.8,63.283,7.255,53.217,3.613,48.977ZM50.3,67.642v6.929H22.094V67.642ZM2.262,93.25V50.876c3.661,4.272,11.7,13.734,17.569,20.653V76.84H52.566V71.529c5.868-6.919,13.908-16.381,17.569-20.653V93.25Z" transform="translate(0 -32.23)"/></svg>