<svg xmlns="http://www.w3.org/2000/svg" width="72.397" height="63.206" viewBox="0 0 72.397 63.206"><defs><style>.a{fill:#b1ffff;}.b{fill:#2a78b2;}</style></defs><path class="a" d="M103,174.34V144.36h10.174l6.511,5.529H155.46V174.34Z" transform="translate(-88.436 -128.543)"/><g transform="translate(0 0)"><rect class="b" width="15.973" height="2.262" transform="translate(18.309 25.069)"/><path class="b" d="M63.206,48.473V38.029H24.038L17.521,32.5H0V85.262H9.191V95.706H72.4V48.478ZM2.262,34.762H16.685L23.2,40.291H60.944v8.181H33.229l-6.511-5.529H9.191v28.02H2.262Zm0,38.461H9.191V83H2.262Zm67.872,20.22H11.453V83.67H70.135ZM11.453,81.408v-36.2H25.876l6.5,5.529H70.135v30.67Z" transform="translate(0 -32.5)"/></g></svg>