<svg xmlns="http://www.w3.org/2000/svg" width="72.397" height="71.379" viewBox="0 0 72.397 71.379"><defs><style>.a{fill:#b1ffff;}.b{fill:#2a78b2;}</style></defs><rect class="a" width="61.625" height="33.987" transform="translate(5.386 32.005)"/><g transform="translate(0 0)"><path class="b" d="M62.387,30.219,41.816,16.786a5.752,5.752,0,0,0-4.57-4.99V3.6H34.984v8.193a5.752,5.752,0,0,0-4.57,4.99L9.843,30.216H0V74.979H72.4V30.219ZM36.114,13.948a3.473,3.473,0,1,1-3.473,3.473h0A3.477,3.477,0,0,1,36.114,13.948Zm-5.42,5.359a5.738,5.738,0,0,0,10.841,0L58.243,30.22H13.985Zm39.441,53.4H2.262V32.487H70.135Z" transform="translate(0 -3.6)"/><rect class="b" width="2.268" height="25.937" transform="translate(34.98 35.151)"/><rect class="b" width="2.268" height="25.937" transform="translate(53.83 35.151)"/><rect class="b" width="2.268" height="25.937" transform="translate(16.13 35.151)"/></g></svg>