<svg xmlns="http://www.w3.org/2000/svg" width="72.396" height="72.397" viewBox="0 0 72.396 72.397"><defs><style>.a{fill:#b1ffff;}.b{fill:#2a78b2;}</style></defs><g transform="translate(5.374 58.821)"><path class="a" d="M42.108,424.187a4.1,4.1,0,1,1,4.1-4.1h0A4.1,4.1,0,0,1,42.108,424.187Z" transform="translate(-38.008 -415.986)"/><path class="a" d="M420.1,424.187a4.1,4.1,0,1,1,4.1-4.1h0A4.1,4.1,0,0,1,420.1,424.187Z" transform="translate(-362.547 -415.986)"/><path class="a" d="M231.1,424.187a4.1,4.1,0,1,1,4.1-4.1h0A4.1,4.1,0,0,1,231.1,424.187Z" transform="translate(-200.277 -415.986)"/></g><path class="b" d="M64.055,53.517V35.066H37.331V18.947h8.342V0H26.727V18.947h8.342V35.066H8.345V53.517a9.473,9.473,0,1,0,2.262,0V37.328H35.069V53.517a9.473,9.473,0,1,0,2.262,0V37.328H61.793V53.517a9.474,9.474,0,1,0,2.262,0ZM28.989,2.262H43.412V16.685H28.989Zm-12.3,60.659A7.211,7.211,0,1,1,9.477,55.71,7.211,7.211,0,0,1,16.688,62.921Zm26.724,0A7.211,7.211,0,1,1,36.2,55.71,7.211,7.211,0,0,1,43.412,62.921Zm19.513,7.211a7.211,7.211,0,1,1,7.211-7.211A7.211,7.211,0,0,1,62.924,70.132Z" transform="translate(-0.002)"/></svg>