<svg xmlns="http://www.w3.org/2000/svg" width="42.251" height="72.397" viewBox="0 0 42.251 72.397"><defs><style>.a{fill:#b1ffff;}.b{fill:#2a78b2;}</style></defs><path class="a" d="M144.6,38V99.651h31.5V38Zm15.752,55.995a4.6,4.6,0,1,1,4.6-4.6,4.6,4.6,0,0,1-4.6,4.6Z" transform="translate(-139.227 -32.627)"/><g transform="translate(0)"><path class="b" d="M106.6,0V72.4h42.25V0Zm39.988,70.135H108.862V2.262h37.726Z" transform="translate(-106.6)"/><path class="b" d="M215.5,366.727A5.727,5.727,0,1,0,221.227,361,5.727,5.727,0,0,0,215.5,366.727Zm9.191,0a3.464,3.464,0,1,1-3.464-3.464h0A3.469,3.469,0,0,1,224.691,366.727Z" transform="translate(-200.102 -309.954)"/><rect class="b" width="12.924" height="2.262" transform="translate(11.906 9.191)"/><rect class="b" width="3.111" height="3.111" transform="translate(27.234 8.767)"/></g></svg>