<svg xmlns="http://www.w3.org/2000/svg" width="54.015" height="72.397" viewBox="0 0 54.015 72.397"><defs><style>.a{fill:#b1ffff;}.b{fill:#2a78b2;}</style></defs><path class="a" d="M103,99.651V38h34.078v9.191h9.191v52.46Zm18.485-41.119c-4.277,1.311-7.614,5.09-7.614,11H135.4c0-5.854-3.279-9.673-7.614-11a5.735,5.735,0,1,0-6.3,0Z" transform="translate(-97.627 -32.627)"/><g transform="translate(0)"><path class="b" d="M109.161,0H65V72.4h54.015V9.854Zm.663,3.862,5.329,5.329h-5.329ZM67.262,70.135V2.262h40.3v9.191h9.191V70.135Z" transform="translate(-65)"/><path class="b" d="M192.1,116.524a6.159,6.159,0,1,0-8.06,0c-4.3,1.667-7.159,5.428-7.159,11.565h22.377C199.257,122.009,196.447,118.209,192.1,116.524Zm-7.928-4.652a3.9,3.9,0,1,1,3.9,3.9A3.9,3.9,0,0,1,184.171,111.872Zm-4.957,13.955a8.927,8.927,0,0,1,17.709,0Z" transform="translate(-161.06 -90.759)"/><rect class="b" width="32.399" height="2.262" transform="translate(10.809 44.965)"/><rect class="b" width="32.399" height="2.262" transform="translate(10.809 52.035)"/></g></svg>