<svg xmlns="http://www.w3.org/2000/svg" width="70.13" height="72.397" viewBox="0 0 70.13 72.397"><defs><style>.a{fill:#b1ffff;}.b{fill:#2a78b2;}</style></defs><rect class="a" width="20.477" height="20.477" transform="translate(29.422 24.189)"/><g transform="translate(0)"><path class="b" d="M78.148,60.939H18.341V0H8.019V2.262h8.059V63.2H26.439a5.726,5.726,0,1,0,9.111,0H59.807a5.726,5.726,0,1,0,9.111,0h9.23Zm-47.153,9.19a3.464,3.464,0,1,1,3.464-3.464A3.464,3.464,0,0,1,30.995,70.129Zm33.368,0a3.464,3.464,0,1,1,3.464-3.464A3.464,3.464,0,0,1,64.363,70.129Z" transform="translate(-8.019)"/><path class="b" d="M174.83,84.993H130.01v44.82h44.82Zm-8.4,6.8H138.408l-4.537-4.536h37.1Zm-.663,2.262v26.7h-26.7v-26.7Zm-28.961-.662v28.023l-4.536,4.537v-37.1Zm1.6,29.624h28.023l4.537,4.536h-37.1Zm29.624-1.6V93.392l4.536-4.537v37.1Z" transform="translate(-112.76 -72.975)"/></g></svg>