<svg xmlns="http://www.w3.org/2000/svg" width="72.397" height="57.632" viewBox="0 0 72.397 57.632"><defs><style>.a{fill:#b1ffff;}.b{fill:#2a78b2;}</style></defs><path class="a" d="M206.15,116.43V155.9h37.861V116.43ZM238.7,132.239H211.46V121.484H238.7Z" transform="translate(-177 -107.349)"/><g transform="translate(0 0)"><path class="b" d="M72.4,55.9H26.03V52.21H6.8V55.9H0v50.242H6.8v3.695h19.23v-3.695H72.4ZM2.262,103.879V58.173H6.787v45.706Zm21.493,3.695H9.064v-53.1H23.769Zm46.379-3.695H26.03V58.173h44.1Z" transform="translate(0 -52.21)"/><path class="b" d="M265.189,144.15H235.68v13.023h29.509ZM262.926,154.9H237.948v-8.484h24.974Z" transform="translate(-202.355 -131.15)"/><rect class="b" width="3.329" height="3.329" transform="translate(36.64 31.964)"/><rect class="b" width="3.329" height="3.329" transform="translate(46.454 31.964)"/><rect class="b" width="3.329" height="3.329" transform="translate(46.454 40.17)"/><rect class="b" width="3.177" height="3.177" transform="translate(56.344 32.04)"/><rect class="b" width="3.329" height="3.329" transform="translate(36.64 40.17)"/><rect class="b" width="3.177" height="3.177" transform="translate(56.344 40.245)"/></g></svg>