<svg xmlns="http://www.w3.org/2000/svg" width="72.397" height="72.397" viewBox="0 0 72.397 72.397"><defs><style>.a{fill:#b1ffff;}.b{fill:#2a78b2;}</style></defs><path class="a" d="M40,312.583a30.837,30.837,0,0,1,61.085,0Z" transform="translate(-34.344 -245.559)"/><g transform="translate(0)"><path class="b" d="M43.563,35.814a18.665,18.665,0,1,0-14.728,0C13.058,39.058,0,52.734,0,72.4H72.4C72.4,52.905,59.507,39.093,43.563,35.814ZM19.8,18.665a16.4,16.4,0,1,1,16.4,16.4A16.4,16.4,0,0,1,19.8,18.665ZM35.067,37.351V70.135H2.281A33.912,33.912,0,0,1,35.067,37.351ZM37.33,70.135V37.351A33.911,33.911,0,0,1,70.116,70.135Z" transform="translate(0)"/><rect class="b" width="9.209" height="2.262" transform="translate(44.886 51.364)"/></g></svg>