<svg xmlns="http://www.w3.org/2000/svg" width="72.397" height="54.015" viewBox="0 0 72.397 54.015"><defs><style>.a{fill:#b1ffff;}.b{fill:#2a78b2;}</style></defs><path class="a" d="M38,146.269V103H99.651v43.269Zm19.72-8.085V125.368a8.484,8.484,0,0,0,1.687-5.11,8.582,8.582,0,1,0-17.165,0,8.484,8.484,0,0,0,1.687,5.11v12.815l6.895-4.447Z" transform="translate(-32.627 -97.627)"/><g transform="translate(0 0)"><path class="b" d="M0,65v54.015H72.4V65Zm70.135,51.753H2.262V67.262H70.135Z" transform="translate(0 -65)"/><path class="b" d="M66.678,189.065,74,184.345l7.319,4.72V175.609A8.909,8.909,0,0,0,83,170.362a9.007,9.007,0,1,0-18.013,0,8.909,8.909,0,0,0,1.687,5.247Zm12.377-4.146L74,181.652l-5.056,3.266v-7.1a9.03,9.03,0,0,0,10.113,0ZM74,163.618a6.743,6.743,0,1,1-6.743,6.743A6.743,6.743,0,0,1,74,163.618Z" transform="translate(-55.8 -147.73)"/><rect class="b" width="17.392" height="2.262" transform="translate(40.441 18.002)"/><rect class="b" width="27" height="2" transform="translate(35.888 25.906)"/><rect class="b" width="25.876" height="2.262" transform="translate(36.199 33.751)"/></g></svg>