<svg xmlns="http://www.w3.org/2000/svg" width="37.355" height="72.397" viewBox="0 0 37.355 72.397"><defs><style>.a{fill:#b1ffff;}.b{fill:#2a78b2;}</style></defs><path class="a" d="M161.934,115V69.823l13.3-13.944,13.3,13.943V115Zm13.3-50.374a5.306,5.306,0,1,0,5.306,5.306h0A5.312,5.312,0,0,0,175.235,64.624Z" transform="translate(-156.557 -47.978)"/><g transform="translate(0)"><path class="b" d="M161.263,72.4H123.907V19.732L142.585,0l18.678,19.732Zm-35.092-2.264H159v-49.5L142.585,3.294,126.171,20.635Z" transform="translate(-123.907)"/><path class="b" d="M221.2,126.182a5.731,5.731,0,1,1,5.731-5.731A5.731,5.731,0,0,1,221.2,126.182Zm0-9.2a3.467,3.467,0,1,0,3.467,3.467A3.467,3.467,0,0,0,221.2,116.985Z" transform="translate(-202.524 -98.499)"/><rect class="b" width="21.508" height="2.264" transform="translate(7.924 33.909)"/><rect class="b" width="21.508" height="2.264" transform="translate(7.924 46.927)"/><rect class="b" width="21.508" height="2.264" transform="translate(7.924 59.945)"/></g></svg>