<svg xmlns="http://www.w3.org/2000/svg" width="72.397" height="72.397" viewBox="0 0 72.397 72.397"><defs><style>.a{fill:#b1ffff;}.b{fill:#2a78b2;}</style></defs><path class="a" d="M40,338.753A30.8,30.8,0,0,1,54.793,316.48l15.749,15.745L86.286,316.48a30.8,30.8,0,0,1,14.8,22.273Z" transform="translate(-34.344 -271.73)"/><path class="b" d="M43.563,35.814a18.665,18.665,0,1,0-14.728,0C13.058,39.058,0,52.734,0,72.4H72.4C72.4,52.912,59.513,39.094,43.563,35.814Zm-8.5,15.951L23.2,39.9a33.822,33.822,0,0,1,11.868-2.545ZM37.33,37.351A33.821,33.821,0,0,1,49.2,39.9L37.33,51.765ZM19.8,18.665a16.4,16.4,0,1,1,16.4,16.4A16.4,16.4,0,0,1,19.8,18.665ZM2.281,70.135A33.943,33.943,0,0,1,21.005,40.9L36.2,56.095,51.392,40.9A33.936,33.936,0,0,1,70.116,70.135Z" transform="translate(0)"/></svg>