<svg xmlns="http://www.w3.org/2000/svg" width="72.392" height="72.397" viewBox="0 0 72.392 72.397"><defs><style>.a{fill:#b1ffff;}.b{fill:#2a78b2;}</style></defs><g transform="translate(6.156 59.386)"><path class="a" d="M311.536,427.624a11.877,11.877,0,0,1,22.187,0Z" transform="translate(-273.644 -419.986)"/><path class="a" d="M43.558,427.624a11.877,11.877,0,0,1,22.187,0Z" transform="translate(-43.558 -419.986)"/></g><g transform="translate(0 0)"><path class="b" d="M290.287,284.855a9.19,9.19,0,1,0-10.08,0C273.354,286.951,268,293,268,302.483h34.5C302.5,293.117,297.251,286.985,290.287,284.855Zm-11.967-7.68a6.928,6.928,0,1,1,6.928,6.928A6.928,6.928,0,0,1,278.32,277.174ZM270.3,300.221a14.987,14.987,0,0,1,29.89,0Z" transform="translate(-230.106 -230.086)"/><path class="b" d="M22.31,284.855a9.19,9.19,0,1,0-10.08,0C5.377,286.951.021,293,.021,302.483h34.5C34.52,293.117,29.274,286.985,22.31,284.855Zm-11.967-7.68A6.928,6.928,0,1,1,17.27,284.1,6.928,6.928,0,0,1,10.342,277.174ZM2.326,300.221a14.987,14.987,0,0,1,29.89,0Z" transform="translate(-0.021 -230.086)"/><path class="b" d="M156.3,16.877a9.19,9.19,0,1,0-10.08,0c-6.853,2.1-12.209,8.144-12.209,17.628h34.5C168.508,25.139,163.263,19.007,156.3,16.877ZM144.331,9.2a6.928,6.928,0,1,1,6.928,6.928A6.928,6.928,0,0,1,144.331,9.2Zm-8.017,23.046a14.987,14.987,0,0,1,29.89,0h-29.89Z" transform="translate(-115.063 0)"/></g><path class="a" d="M177.547,159.646a11.877,11.877,0,0,1,22.187,0Z" transform="translate(-152.445 -130.514)"/></svg>