<svg xmlns="http://www.w3.org/2000/svg" width="72.397" height="72.396" viewBox="0 0 72.397 72.396"><defs><style>.a{fill:#b1ffff;}.b{fill:#2a78b2;}</style></defs><path class="a" d="M38,78.15V12.96H95.7a5.3,5.3,0,0,0,7.395,7.595l.1-.1v57.7Zm45.039-36.07a5.3,5.3,0,1,0,5.3,5.3h0A5.309,5.309,0,0,0,83.042,42.081Zm-29.06,0a5.3,5.3,0,1,0,5.3,5.3h0A5.309,5.309,0,0,0,53.982,42.081Z" transform="translate(-32.629 -11.128)"/><path class="b" d="M19.515,41.683a5.723,5.723,0,0,0,7.462-4.333l17.809-.037a5.726,5.726,0,1,0,9.3-5.446L65.049,11.215a5.721,5.721,0,1,0-2-1.059L52.1,30.788a5.727,5.727,0,0,0-7.156,3.794q-.071.232-.123.469l-17.857.037a5.727,5.727,0,1,0-9.4,5.457l-15.3,26.5V1.254H0V72.4H71.271V70.139H3.09ZM66.675,2.262A3.465,3.465,0,1,1,63.21,5.727,3.465,3.465,0,0,1,66.675,2.262ZM50.413,32.8a3.465,3.465,0,1,1-3.465,3.465A3.465,3.465,0,0,1,50.413,32.8Zm-29.06,0a3.465,3.465,0,1,1-3.465,3.465A3.465,3.465,0,0,1,21.353,32.8Z" transform="translate(0 -0.006)"/></svg>