<svg xmlns="http://www.w3.org/2000/svg" width="72.397" height="72.397" viewBox="0 0 72.397 72.397"><defs><style>.a{fill:#b1ffff;}.b{fill:#2a78b2;}</style></defs><path class="a" d="M84.892,193.6A7.555,7.555,0,0,0,83,191.709V170.895A7.555,7.555,0,0,0,84.892,169h45.141a7.556,7.556,0,0,0,1.892,1.895v20.814a7.555,7.555,0,0,0-1.892,1.895Z" transform="translate(-71.264 -145.103)"/><path class="b" d="M0,94.5v45.672H72.4V94.5Zm70.135,43.41H2.262V96.762H70.135Z" transform="translate(0 -81.138)"/><path class="b" d="M48.218,166.367h53.234c0-3.381,1.186-3.218,3.218-3.218V134.238c-3.381,0-3.218-1.186-3.218-3.218H48.218c0,3.381-1.186,3.218-3.218,3.218v28.908C47.084,163.146,48.218,163.006,48.218,166.367Zm-.956-30.015a4.365,4.365,0,0,0,3.068-3.073H99.34a4.365,4.365,0,0,0,3.068,3.068v24.684A4.365,4.365,0,0,0,99.34,164.1H50.331a4.365,4.365,0,0,0-3.068-3.073Z" transform="translate(-38.637 -112.494)"/><path class="b" d="M224.562,204.518h-8.111v2.262h3.49v2.336H222.2v-2.336h4.621v-8.039h-9.242v-3.514h8.111v-2.262H222.2V190.63h-2.262v2.336H215.32V201h9.242Z" transform="translate(-184.874 -163.675)"/><path class="b" d="M13.132,6.527l-1.6-1.6L8.867,7.592V2.262H67.548v8.06h2.262V0H6.6V7.592L3.941,4.926l-1.6,1.6,5.4,5.394Z" transform="translate(-2.009)"/><path class="b" d="M89.179,433.084l1.6,1.6,2.664-2.665v5.329H34.762v-8.06H32.5v10.322H95.706V432.02l2.664,2.665,1.6-1.6-5.4-5.394Z" transform="translate(-27.904 -367.214)"/></svg>