<svg xmlns="http://www.w3.org/2000/svg" width="72.397" height="48.593" viewBox="0 0 72.397 48.593"><defs><style>.a{fill:#b1ffff;}.b{fill:#2a78b2;}</style></defs><path class="a" d="M61.287,152.726a11.667,11.667,0,0,0-21.829,0H38V122.183H84.8v23.793a11.756,11.756,0,0,0-6.673,6.749Z" transform="translate(-32.627 -116.808)"/><path class="b" d="M72.4,97.967l-5.631-5.31H57.55V84.173H0v41.289H9.284a8.553,8.553,0,0,0,16.923,0h21.75a8.553,8.553,0,0,0,16.923,0H72.4Zm-6.53-3.047,4.267,4.024V105.1H57.55V94.921Zm-63.6-8.483H55.288v29.291a8.579,8.579,0,0,0-7.364,7.472H26.241a8.555,8.555,0,0,0-16.991,0H2.262ZM17.746,130.5a6.292,6.292,0,1,1,6.292-6.207A6.316,6.316,0,0,1,17.746,130.5Zm38.673,0a6.292,6.292,0,1,1,6.292-6.207A6.316,6.316,0,0,1,56.419,130.5Zm8.5-7.3a8.576,8.576,0,0,0-7.364-7.472v-8.364H70.135V123.2Z" transform="translate(0 -84.173)"/></svg>