<svg xmlns="http://www.w3.org/2000/svg" width="46.641" height="72.397" viewBox="0 0 46.641 72.397"><defs><style>.a{fill:#b1ffff;}.b{fill:#2a78b2;}</style></defs><path class="a" d="M141.425,79.122c-2.644-10.714-12.344-10.146-12.231-23.206a17.929,17.929,0,0,1,35.857.162c0,12.968-9.59,12.343-12.232,23.045Z" transform="translate(-123.803 -32.755)"/><path class="b" d="M114.78,0a23.369,23.369,0,0,0-23.7,23.112c-.141,16.308,11.817,16.3,12.689,26.373h-1.045v13.68H104.1a10.355,10.355,0,0,0,20.587,0h1.381V49.486h-1.045c.869-10.047,12.69-9.982,12.69-26.166A23.318,23.318,0,0,0,114.78,0ZM114.4,70.121a8.1,8.1,0,0,1-8.008-6.952H122.4A8.1,8.1,0,0,1,114.4,70.121Zm9.4-9.221H105V57.465h18.8ZM105,55.2V51.76h18.8V55.2Zm17.75-5.709h-7.22V33.228h5.264V30.965H108v2.269h5.268V49.486h-7.21c-.833-11.445-12.832-10.951-12.7-26.354a21.05,21.05,0,0,1,42.1.188C135.447,38.706,123.586,38.043,122.748,49.486Z" transform="translate(-91.077 0)"/></svg>