<svg xmlns="http://www.w3.org/2000/svg" width="54.408" height="72.397" viewBox="0 0 54.408 72.397"><defs><style>.a{fill:#b1ffff;}.b{fill:#2a78b2;}</style></defs><path class="a" d="M115.2,211.269,108.22,168h41.792l-6.975,43.269Zm22.157-17.746a5.3,5.3,0,1,0,5.3,5.3A5.3,5.3,0,0,0,137.353,193.523Zm-16.473,0a5.3,5.3,0,1,0,5.3,5.3A5.3,5.3,0,0,0,120.88,193.523Zm16.473-18.382a5.3,5.3,0,1,0,5.3,5.3h0A5.308,5.308,0,0,0,137.353,175.141Zm-16.473,0a5.3,5.3,0,1,0,5.3,5.3h0A5.308,5.308,0,0,0,120.88,175.141Z" transform="translate(-101.912 -144.245)"/><g transform="translate(0)"><path class="b" d="M103.01,18.382V5.09h2.333v8.06h2.262V2.828h-4.6V0H91.556V18.382h-6.08V8.856L79.749.045,74.023,8.856v9.526H63.61L72.317,72.4h36.993l8.707-54.015ZM93.819,2.262h6.929v16.12H93.819ZM82.261,8.06H77.24L79.751,4.2Zm-5.976,2.262h6.929v8.06H76.285Zm31.1,59.812H74.243l-7.978-49.49h49.1Z" transform="translate(-63.61)"/><path class="b" d="M162.977,215.5a5.727,5.727,0,1,0,5.727,5.727A5.727,5.727,0,0,0,162.977,215.5Zm0,9.191a3.464,3.464,0,1,1,3.464-3.464h0A3.469,3.469,0,0,1,162.977,224.691Z" transform="translate(-144.009 -185.028)"/><path class="b" d="M279.477,215.5a5.727,5.727,0,1,0,5.727,5.727A5.727,5.727,0,0,0,279.477,215.5Zm0,9.191a3.464,3.464,0,1,1,3.464-3.464h0A3.469,3.469,0,0,1,279.477,224.691Z" transform="translate(-244.036 -185.028)"/><path class="b" d="M162.977,345.5a5.727,5.727,0,1,0,5.727,5.727A5.727,5.727,0,0,0,162.977,345.5Zm0,9.191a3.464,3.464,0,1,1,3.464-3.464h0A3.469,3.469,0,0,1,162.977,354.691Z" transform="translate(-144.009 -296.646)"/><path class="b" d="M279.477,345.5a5.727,5.727,0,1,0,5.727,5.727A5.727,5.727,0,0,0,279.477,345.5Zm0,9.191a3.464,3.464,0,1,1,3.464-3.464h0A3.469,3.469,0,0,1,279.477,354.691Z" transform="translate(-244.036 -296.646)"/></g></svg>