<svg xmlns="http://www.w3.org/2000/svg" width="72.397" height="72.397" viewBox="0 0 72.397 72.397"><defs><style>.a{fill:#b1ffff;}.b{fill:#2a78b2;}</style></defs><path class="a" d="M68.825,99.651a30.808,30.808,0,1,1,.034,0Zm12.8-23.331a5.3,5.3,0,1,0,5.3,5.3h0A5.308,5.308,0,0,0,81.622,76.32ZM56.029,50.726a5.3,5.3,0,1,0,5.3,5.3h0A5.308,5.308,0,0,0,56.029,50.726Z" transform="translate(-32.627 -32.627)"/><path class="b" d="M36.2,0A36.2,36.2,0,1,0,72.4,36.2,36.179,36.179,0,0,0,36.2,0Zm0,70.135A33.936,33.936,0,1,1,70.135,36.2,33.917,33.917,0,0,1,36.2,70.135Z"/><path class="b" d="M130.727,136.453A5.727,5.727,0,1,0,125,130.727,5.727,5.727,0,0,0,130.727,136.453Zm0-9.191a3.464,3.464,0,1,1-3.464,3.464A3.464,3.464,0,0,1,130.727,127.262Z" transform="translate(-107.325 -107.325)"/><path class="b" d="M311.727,306a5.727,5.727,0,1,0,5.727,5.727A5.727,5.727,0,0,0,311.727,306Zm0,9.191a3.464,3.464,0,1,1,3.464-3.464A3.464,3.464,0,0,1,311.727,315.191Z" transform="translate(-262.731 -262.731)"/><rect class="b" width="53.191" height="2.262" transform="translate(55.805 18.189) rotate(135)"/></svg>