<svg xmlns="http://www.w3.org/2000/svg" width="72.397" height="67.184" viewBox="0 0 72.397 67.184"><defs><style>.a{fill:#b1ffff;}.b{fill:#2a78b2;}</style></defs><path class="a" d="M70.547,322.053,66.27,300.065h53.656l-4.277,21.988Z" transform="translate(-56.899 -260.242)"/><g transform="translate(0 0)"><path class="b" d="M72.4,43.693H54.285L41.449,18.436l-2.016,1.025,12.32,24.232H20.644L32.965,19.46l-2.016-1.025L18.112,43.693H0V55.147H3.04L9.4,85.619H62.994l6.363-30.472H72.4ZM61.156,83.356H11.241L5.351,55.147h61.7Zm8.979-30.472H2.262V45.956H70.135Z" transform="translate(0 -18.435)"/><rect class="b" width="2.262" height="13.857" transform="translate(35.067 43.887)"/><rect class="b" width="2.262" height="9.262" transform="translate(43.056 46.185)"/><rect class="b" width="2.262" height="9.262" transform="translate(27.078 46.185)"/></g></svg>