<svg xmlns="http://www.w3.org/2000/svg" width="72.397" height="72.397" viewBox="0 0 72.397 72.397"><defs><style>.a{fill:#b1ffff;}.b{fill:#2a78b2;}</style></defs><path class="a" d="M103,103v43.269h43.269V103Zm36.2,26.23h-9.191v-9.191H139.2Z" transform="translate(-88.436 -88.436)"/><path class="b" d="M0,0V72.4H72.4V0ZM11.453,11.453h49.49v49.49H11.453ZM9.191,54.863H2.262V50.621H9.191Zm0-33.088H2.262V17.534H9.191ZM2.262,24.038H9.191V48.359H2.262Zm67.872,46.1H2.262V57.126H9.191v6.08H63.206V9.191H9.191v6.08H2.262V2.262H70.135Z"/><path class="b" d="M297.453,215.5H286v11.453h11.453Zm-2.262,9.191h-6.929v-6.929h6.929Z" transform="translate(-245.559 -185.028)"/></svg>