<svg xmlns="http://www.w3.org/2000/svg" width="54.015" height="72.397" viewBox="0 0 54.015 72.397"><defs><style>.a{fill:#b1ffff;}.b{fill:#2a78b2;}</style></defs><path class="a" d="M103,99.651V38h34.078v9.191h9.191v52.46Zm3.182-28.824a16.47,16.47,0,0,0,16.452,16.452c8.357,0,16.452-6.418,16.452-17.159H123.407V54.38C112.757,54.306,106.181,62.363,106.181,70.826ZM126,67.53h17.091c0-10.464-7.579-17.122-17.091-17.16Z" transform="translate(-97.627 -32.627)"/><g transform="translate(0)"><path class="b" d="M109.161,0H65V72.4h54.015V9.854Zm.663,3.862,5.329,5.329h-5.329ZM67.262,70.135V2.262h40.3v9.191h9.191V70.135Z" transform="translate(-65)"/><path class="b" d="M140.574,150.857c-11.509-.075-18.074,8.245-18.074,16.868A16.9,16.9,0,0,0,139.376,184.6c8.449,0,16.876-6.333,16.876-18.007H140.574Zm13.372,18a14.614,14.614,0,1,1-15.635-15.705v15.705Z" transform="translate(-114.369 -129.525)"/><path class="b" d="M262.63,122.47v18.01h17.939C280.569,129.049,272.75,122.512,262.63,122.47Zm2.262,15.748V124.785a14.651,14.651,0,0,1,13.372,13.433Z" transform="translate(-234.685 -105.153)"/></g></svg>