<svg xmlns="http://www.w3.org/2000/svg" width="54.051" height="72.397" viewBox="0 0 54.051 72.397"><defs><style>.a{fill:#2a78b2;}.b{fill:#b1ffff;}</style></defs><path class="a" d="M112.968,2.262h5.952V0H64.875V2.262h5.956V24.4L89.76,36.2,70.831,47.993V70.135H64.875V72.4h54.05V70.135h-5.957V47.993L94.039,36.2,112.968,24.4Zm-2.262,0V17.534H73.093V2.262ZM73.093,70.135V54.863h37.613V70.135Zm37.613-20.886V52.6H73.093V49.248L91.9,37.531ZM91.9,34.867,73.093,23.149V19.8h37.613v3.353Z" transform="translate(-64.875)"/><g transform="translate(11.325 22.907)"><rect class="b" width="31.399" height="9.05" transform="translate(0 35.067)"/><path class="b" d="M161.825,162h26.631l-13.316,8.295Z" transform="translate(-159.442 -162)"/></g></svg>