<svg xmlns="http://www.w3.org/2000/svg" width="72.397" height="72.397" viewBox="0 0 72.397 72.397"><defs><style>.a{fill:#2a78b2;}</style></defs><g transform="translate(16.755 10.348)"><rect class="a" width="2.848" height="52.928" transform="translate(38.475)"/><rect class="a" width="2.848" height="23.915" transform="translate(0 29.013)"/><rect class="a" width="2.848" height="35.52" transform="translate(19.238 17.406)"/></g><path class="a" d="M63.63,66.485V4.808H49.684V66.485h-5.3V22.208H30.446V66.485h-5.3V33.813H11.209V66.485h-5.3V0H3.576V11.049H0v2.336H3.576v16.9H0v2.336H3.576v16.9H0V51.86H3.576V68.828H17.009V72.4h2.336V68.821h16.9V72.4h2.336V68.821h16.9V72.4h2.336V68.821H72.4V66.485Zm-50.08,0V36.149h9.27V66.485Zm19.23,0V24.544h9.27V66.485Zm19.23,0V7.136h9.27V66.485Z"/></svg>