<svg xmlns="http://www.w3.org/2000/svg" width="72.397" height="48.274" viewBox="0 0 72.397 48.274"><defs><style>.a{fill:#b1ffff;}.b{fill:#2a78b2;}</style></defs><path class="a" d="M38,160.828V123.3H99.651v37.528Zm13.111-18.393c-4.949,1.414-8.869,5.779-8.869,12.469H66.7c0-6.6-3.832-11.029-8.869-12.469a6.469,6.469,0,1,0-6.725,0Z" transform="translate(-32.627 -117.927)"/><g transform="translate(0 0)"><path class="b" d="M0,85.3v48.274H72.4V85.3Zm70.135,46.012H2.262V87.562H70.135Z" transform="translate(0 -85.3)"/><path class="b" d="M81.954,183.041a6.893,6.893,0,1,0-8.6,0C68.476,184.81,65,189.111,65,196.075H90.311C90.311,189.175,86.9,184.832,81.954,183.041Zm-8.929-5.383a4.631,4.631,0,1,1,4.631,4.631,4.631,4.631,0,0,1-4.631-4.631Zm-5.7,16.155a10.393,10.393,0,0,1,20.663,0Z" transform="translate(-55.809 -158.675)"/><rect class="b" width="21.634" height="2.262" transform="translate(40.441 14.918)"/><rect class="b" width="21.634" height="2.262" transform="translate(40.441 23.006)"/><rect class="b" width="21.634" height="2.262" transform="translate(40.441 31.094)"/></g></svg>