<svg xmlns="http://www.w3.org/2000/svg" width="68.127" height="72.397" viewBox="0 0 68.127 72.397"><defs><style>.a{fill:#2a78b2;}.b{fill:#b1ffff;}</style></defs><path class="a" d="M54.6,72.4H43.734l-2.77-9.014a28.442,28.442,0,0,1-11.227-6.489L20.531,59,15.1,49.595l6.42-6.909a28.62,28.62,0,0,1,0-12.973L15.1,22.8,20.531,13.4l9.2,2.107a28.443,28.443,0,0,1,11.23-6.489L43.734,0H54.6l2.77,9.014A28.442,28.442,0,0,1,68.593,15.5L77.8,13.4,83.227,22.8l-6.42,6.909a28.62,28.62,0,0,1,0,12.973l6.42,6.909L77.8,59l-9.2-2.107a28.443,28.443,0,0,1-11.23,6.489ZM45.4,70.135h7.52l2.644-8.593A26.242,26.242,0,0,0,67.9,54.415l8.767,2.008,3.764-6.509-6.118-6.589a26.515,26.515,0,0,0,0-14.253l6.118-6.589-3.76-6.5-8.767,2.008A26.247,26.247,0,0,0,55.573,10.86l-2.648-8.6H45.4l-2.644,8.593a26.242,26.242,0,0,0-12.334,7.127L21.66,15.974,17.9,22.483l6.118,6.589a26.515,26.515,0,0,0,0,14.253L17.9,49.914l3.76,6.5,8.767-2.008a26.247,26.247,0,0,0,12.334,7.127Zm3.76-19.175A14.761,14.761,0,1,1,63.926,36.2,14.761,14.761,0,0,1,49.165,50.959Zm0-27.259a12.5,12.5,0,1,0,12.5,12.5h0a12.512,12.512,0,0,0-12.5-12.5Z" transform="translate(-15.1)"/><path class="b" d="M87.98,99.651l-2.469-8.024c-7.319-2.031-9.146-3.394-13.842-8l-8.191,1.882L62.01,82.965l5.711-6.147a28.15,28.15,0,0,1-1.3-8,28.277,28.277,0,0,1,1.3-8L62.01,54.685l1.468-2.545,8.191,1.875c5.481-5.373,7.589-6.263,13.842-8L87.98,38h2.926l2.467,8.024c7.319,2.031,9.146,3.394,13.842,8l8.191-1.882,1.468,2.545-5.711,6.147a28.15,28.15,0,0,1,1.3,8,28.278,28.278,0,0,1-1.3,8l5.711,6.135-1.468,2.545-8.19-1.882c-5.481,5.373-7.589,6.263-13.842,8L90.9,99.651Zm1.462-48.7a17.872,17.872,0,1,0,17.872,17.872A17.872,17.872,0,0,0,89.442,50.954Z" transform="translate(-55.377 -32.627)"/></svg>