<svg xmlns="http://www.w3.org/2000/svg" width="72.397" height="72.397" viewBox="0 0 72.397 72.397"><defs><style>.a{fill:#b1ffff;}.b{fill:#2a78b2;}</style></defs><path class="a" d="M58.543,79.058A20.517,20.517,0,1,1,79.059,58.542,20.531,20.531,0,0,1,58.543,79.058Zm-3.594-23.5C49.258,57.082,44.62,62.079,44.62,69.72H72.466c0-7.535-4.545-12.614-10.329-14.161a7.315,7.315,0,1,0-7.187,0Z" transform="translate(-32.649 -32.648)"/><path class="b" d="M72.4,70.8l-27.42-27.42a25.923,25.923,0,1,0-1.6,1.6L70.8,72.4Zm-46.5-21.272a23.63,23.63,0,1,1,23.63-23.63A23.657,23.657,0,0,1,25.894,49.523Z"/><path class="b" d="M100.564,76.181a7.74,7.74,0,1,0-9.177,0c-5.545,1.876-9.763,6.778-9.763,14.727h28.7C110.323,83.083,106.224,78.1,100.564,76.181ZM90.5,69.955a5.476,5.476,0,1,1,5.479,5.473h0A5.482,5.482,0,0,1,90.5,69.952ZM83.949,88.643a12.084,12.084,0,0,1,24.054,0Z" transform="translate(-70.082 -53.411)"/></svg>