<svg xmlns="http://www.w3.org/2000/svg" width="72.397" height="72.397" viewBox="0 0 72.397 72.397"><defs><style>.a{fill:#b1ffff;}.b{fill:#2a78b2;}</style></defs><path class="a" d="M103,146.269V103h43.269v43.269Zm27.008-5.656h10.605V130.007H130.007Z" transform="translate(-88.436 -88.436)"/><path class="b" d="M0,0V72.4H72.4V0ZM61.607,9.191H10.79L3.862,2.262H68.535Zm-.663,2.262v49.49H11.453V11.453ZM9.191,10.79V61.607L2.262,68.535V3.862Zm1.6,52.416H61.607l6.929,6.929H3.862Zm52.416-1.6V10.79l6.929-6.929V68.535Z"/><path class="b" d="M302.453,291H291v11.453h11.453Zm-2.262,9.191h-6.929v-6.929h6.929Z" transform="translate(-249.852 -249.852)"/><rect class="b" width="9" height="3" transform="translate(27.18 41.048)"/><rect class="b" width="13" height="3" transform="translate(23.18 50.048)"/><rect class="b" width="13.433" height="2.262" transform="translate(23.19 45.743)"/></svg>