<svg xmlns="http://www.w3.org/2000/svg" width="72.397" height="54.863" viewBox="0 0 72.397 54.863"><defs><style>.a{fill:#b1ffff;}.b{fill:#2a78b2;}</style></defs><rect class="a" width="55.447" height="43.956" transform="translate(11.492 5.454)"/><g transform="translate(0 0)"><path class="b" d="M6.034,62v9.05H0v2.3H6.034v9.191H0v2.3H6.034v9.191H0v2.3H6.034v9.191H0v2.3H6.034v9.05H72.4V62ZM70.1,114.57H8.331v-6.756h4.6V105.52h-4.6V96.329h4.6v-2.3h-4.6V84.838h4.6v-2.3h-4.6V73.346h4.6v-2.3h-4.6V64.294H70.1Z" transform="translate(0 -62)"/><rect class="b" width="43.237" height="2.298" transform="translate(18.673 12.672)"/><rect class="b" width="43.237" height="2.298" transform="translate(18.673 26.282)"/><rect class="b" width="43.237" height="2.298" transform="translate(18.673 39.893)"/></g></svg>