<svg xmlns="http://www.w3.org/2000/svg" width="72.393" height="72.397" viewBox="0 0 72.393 72.397"><defs><style>.a{fill:#b1ffff;}.b{fill:#2a78b2;}</style></defs><g transform="translate(6.477 18.312)"><path class="a" d="M45.823,133.962a8.7,8.7,0,0,1,15.183,0Z" transform="translate(-45.823 -129.506)"/><path class="a" d="M358.8,133.962a8.7,8.7,0,0,1,15.183,0Z" transform="translate(-314.548 -129.506)"/><path class="a" d="M202.313,446.944a8.7,8.7,0,0,1,15.183,0Z" transform="translate(-180.185 -398.232)"/></g><g transform="translate(0 0)"><path class="b" d="M18.625,13.694a7.6,7.6,0,1,0-9.083,0C4.127,15.546.015,20.335.015,28.142H28.152C28.152,20.446,24.142,15.582,18.625,13.694ZM8.746,7.6a5.338,5.338,0,1,1,5.338,5.338A5.338,5.338,0,0,1,8.746,7.6ZM2.331,25.879a11.806,11.806,0,0,1,23.505,0Z" transform="translate(-0.015 0)"/><path class="b" d="M331.606,13.694a7.6,7.6,0,1,0-9.083,0C317.108,15.546,313,20.335,313,28.141h28.137C341.133,20.445,337.123,15.581,331.606,13.694ZM321.727,7.6a5.338,5.338,0,1,1,5.338,5.338A5.338,5.338,0,0,1,321.727,7.6Zm-6.415,18.275a11.806,11.806,0,0,1,23.505,0Z" transform="translate(-268.74 0)"/><path class="b" d="M175.115,326.675a7.6,7.6,0,1,0-9.083,0c-5.415,1.852-9.527,6.645-9.527,14.447h28.137C184.642,333.426,180.632,328.563,175.115,326.675Zm-9.879-6.09a5.338,5.338,0,1,1,5.338,5.338h0A5.343,5.343,0,0,1,165.236,320.585Zm-6.415,18.275a11.806,11.806,0,0,1,23.505,0Z" transform="translate(-134.377 -268.725)"/><path class="b" d="M73.773,241.016H71.511v33.722h6.921v-2.262H73.773Z" transform="translate(-61.401 -206.936)"/><path class="b" d="M396.2,272.476h-4.659v2.262h6.921V241.016H396.2Z" transform="translate(-336.18 -206.936)"/><rect class="b" width="18.381" height="2.262" transform="translate(27.005 9.195)"/></g></svg>