<svg xmlns="http://www.w3.org/2000/svg" width="71.351" height="72.397" viewBox="0 0 71.351 72.397"><defs><style>.a{fill:#b1ffff;}.b{fill:#2a78b2;}</style></defs><path class="a" d="M139.771,155.221a19.141,19.141,0,1,1,19.141-19.141A19.163,19.163,0,0,1,139.771,155.221Z" transform="translate(-104.096 -100.405)"/><path class="b" d="M75.051,25.338H69.457A26.505,26.505,0,0,0,43.008,0H35.743A26.505,26.505,0,0,0,9.294,25.338H3.7V46.013H17.109v-.03a24.534,24.534,0,0,0,44.533,0v.03H67.21V67.056H46.646V63.989H32.1V72.4H46.646V69.33H69.484V46.013h5.567ZM44.367,70.123H34.378v-3.86h9.994ZM35.741,2.274h7.267A24.239,24.239,0,0,1,67.187,25.338H61.642v.03a24.534,24.534,0,0,0-44.533,0v-.03h-5.54A24.23,24.23,0,0,1,35.743,2.274ZM14.835,43.739H5.974V27.611h8.862Zm24.54,14.2A22.266,22.266,0,1,1,61.642,35.675,22.291,22.291,0,0,1,39.375,57.942Zm33.4-14.2H63.915V27.611h8.862Z" transform="translate(-3.7)"/></svg>