<svg xmlns="http://www.w3.org/2000/svg" width="51.768" height="72.397" viewBox="0 0 51.768 72.397"><defs><style>.a{fill:#b1ffff;}.b{fill:#2a78b2;}</style></defs><path class="a" d="M124.831,84.82c-2.741-12.165-13.878-11.372-13.747-26.383a20.491,20.491,0,0,1,40.981.184c0,14.888-11.018,14.079-13.747,26.2H124.831Z" transform="translate(-105.691 -32.737)"/><path class="b" d="M99.258,0a25.934,25.934,0,0,0-26.31,25.645c-.162,18.643,14.207,18.322,14.207,30.578v6.953h1.381a10.359,10.359,0,0,0,20.591,0h1.381V56.226c0-12.242,14.207-11.856,14.207-30.342A25.873,25.873,0,0,0,99.258,0Zm-.426,70.132a8.1,8.1,0,0,1-8.009-6.953h16.018a8.1,8.1,0,0,1-8.009,6.953Zm9.407-9.223H89.426V57.475h18.813v3.437Zm.033-5.707h-8.3V50.223l7.018-14.038-2.031-1.016L98.833,47.416,92.71,35.17l-2.031,1.016L97.7,50.223V55.2h-8.3c-.834-12.852-14.332-12.077-14.173-29.532a23.614,23.614,0,0,1,47.227.212c0,17.153-13.349,16.578-14.176,29.321Z" transform="translate(-72.947 0)"/></svg>