<svg xmlns="http://www.w3.org/2000/svg" width="72.397" height="62.075" viewBox="0 0 72.397 62.075"><defs><style>.a{fill:#b1ffff;}.b{fill:#2a78b2;}</style></defs><rect class="a" width="61.651" height="38.554" transform="translate(5.373 18.147)"/><g transform="translate(0 0)"><path class="b" d="M58.571,40V36.5H56.309V40H37.33V36.5H35.067V40H16.089V36.5H13.826V40H0V98.575H72.4V40ZM70.135,96.312H2.262V51.537H70.135ZM2.262,42.266H13.826v3.5h2.262v-3.5H35.067v3.5H37.33v-3.5H56.309v3.5h2.262v-3.5H70.135v6.929H2.262Z" transform="translate(0 -36.5)"/><rect class="b" width="9.27" height="2.262" transform="translate(31.563 29.57)"/><rect class="b" width="9.27" height="2.262" transform="translate(49.977 29.57)"/><rect class="b" width="9.27" height="2.262" transform="translate(13.15 29.57)"/><rect class="b" width="9.27" height="2.262" transform="translate(31.563 43.018)"/><rect class="b" width="9.27" height="2.262" transform="translate(49.977 43.018)"/><rect class="b" width="9.27" height="2.262" transform="translate(13.15 43.018)"/></g></svg>