<svg xmlns="http://www.w3.org/2000/svg" width="48.359" height="72.397" viewBox="0 0 48.359 72.397"><defs><style>.a{fill:#b1ffff;}.b{fill:#2a78b2;}</style></defs><path class="a" d="M123,99.651V38h36.2a1.414,1.414,0,0,1,1.414,1.414V98.237a1.414,1.414,0,0,1-1.414,1.414Zm5.161-40.441h27.29V42.242h-27.29Z" transform="translate(-117.627 -32.627)"/><g transform="translate(0)"><path class="b" d="M126.572,72.4H85V0h41.572a6.794,6.794,0,0,1,6.787,6.787V65.61A6.794,6.794,0,0,1,126.572,72.4ZM87.262,70.135h39.309A4.525,4.525,0,0,0,131.1,65.61V6.787a4.525,4.525,0,0,0-4.525-4.525H87.262Z" transform="translate(-85)"/><path class="b" d="M184.639,82.816H156.5V65h28.139Zm-25.876-2.262h23.614V67.262H158.762Z" transform="translate(-146.39 -55.809)"/><rect class="b" width="25.876" height="2.262" transform="translate(11.241 35.067)"/></g></svg>