<svg xmlns="http://www.w3.org/2000/svg" width="72.397" height="72.397" viewBox="0 0 72.397 72.397"><defs><style>.a{fill:#b1ffff;}.b{fill:#2a78b2;}</style></defs><path class="a" d="M58.543,79.058A20.517,20.517,0,1,1,79.059,58.542,20.531,20.531,0,0,1,58.543,79.058Z" transform="translate(-32.649 -32.648)"/><path class="b" d="M122.344,80.018h14.432V77.754h-6.65v-4.7h-2.264v4.7H120.08V89.745h15.564v7.464H121.212v2.264h6.65v4.7h2.264v-4.7h7.782V87.481H122.344Z" transform="translate(-103.101 -62.72)"/><path class="b" d="M72.4,70.8l-27.42-27.42a25.923,25.923,0,1,0-1.6,1.6L70.8,72.4Zm-46.5-21.272a23.63,23.63,0,1,1,23.63-23.63A23.657,23.657,0,0,1,25.894,49.523Z"/></svg>