<svg xmlns="http://www.w3.org/2000/svg" width="72.397" height="72.397" viewBox="0 0 72.397 72.397"><defs><style>.a{fill:#b1ffff;}.b{fill:#2a78b2;}</style></defs><path class="a" d="M40,312.583a30.837,30.837,0,0,1,61.085,0Z" transform="translate(-34.344 -245.559)"/><path class="b" d="M43.563,35.814a18.665,18.665,0,1,0-14.728,0C13.058,39.058,0,52.734,0,72.4H72.4C72.4,52.9,59.5,39.092,43.563,35.814ZM19.8,18.665a16.4,16.4,0,1,1,16.4,16.4A16.4,16.4,0,0,1,19.8,18.665ZM2.281,70.135a33.937,33.937,0,0,1,67.835,0Z" transform="translate(0)"/></svg>