<svg xmlns="http://www.w3.org/2000/svg" width="54.015" height="72.397" viewBox="0 0 54.015 72.397"><defs><style>.a{fill:#b1ffff;}.b{fill:#2a78b2;}</style></defs><path class="a" d="M146.269,38V90.46h-9.191v9.191H103V38ZM117,49.772a4.878,4.878,0,1,0-4.878,4.878A4.878,4.878,0,0,0,117,49.772ZM117,66a4.878,4.878,0,1,0-4.878,4.878h0A4.884,4.884,0,0,0,117,66Zm0,16.226A4.878,4.878,0,1,0,112.12,87.1,4.878,4.878,0,0,0,117,82.223Z" transform="translate(-97.627 -32.627)"/><g transform="translate(0)"><path class="b" d="M65,0V72.4h44.161l9.854-9.854V0Zm2.262,2.262h49.49V60.944h-9.191v9.191h-40.3Zm47.891,60.944-5.329,5.329V63.206Z" transform="translate(-65)"/><rect class="b" width="19.372" height="2.262" transform="translate(24.321 48.465)"/><path class="b" d="M135.3,313.25a5.3,5.3,0,1,0,5.3,5.3A5.3,5.3,0,0,0,135.3,313.25Zm0,8.343a3.04,3.04,0,1,1,3.04-3.04A3.04,3.04,0,0,1,135.3,321.593Z" transform="translate(-120.809 -268.956)"/><rect class="b" width="19" height="2" transform="translate(24.887 32.57)"/><path class="b" d="M135.3,198.5a5.3,5.3,0,1,0,5.3,5.3h0A5.308,5.308,0,0,0,135.3,198.5Zm0,8.343a3.04,3.04,0,1,1,3.04-3.04A3.04,3.04,0,0,1,135.3,206.843Z" transform="translate(-120.809 -170.432)"/><rect class="b" width="19.372" height="2.262" transform="translate(24.321 16.014)"/><path class="b" d="M135.3,83.75a5.3,5.3,0,1,0,5.3,5.3A5.3,5.3,0,0,0,135.3,83.75Zm0,8.343a3.04,3.04,0,1,1,3.04-3.04A3.04,3.04,0,0,1,135.3,92.093Z" transform="translate(-120.809 -71.908)"/></g></svg>