<svg xmlns="http://www.w3.org/2000/svg" width="54.015" height="72.397" viewBox="0 0 54.015 72.397"><defs><style>.a{fill:#b1ffff;}.b{fill:#2a78b2;}</style></defs><path class="a" d="M146.269,38V99.651H112.191V90.46H103V38Z" transform="translate(-97.627 -32.627)"/><g transform="translate(0)"><path class="b" d="M65,0V62.543L74.854,72.4h44.161V0Zm9.191,68.535-5.329-5.329h5.329Zm42.562,1.6h-40.3V60.944H67.262V2.262h49.49Z" transform="translate(-65)"/><rect class="b" width="26.3" height="2.262" transform="translate(13.857 14.017)"/><rect class="b" width="33.371" height="2.262" transform="translate(10.322 29.5)"/><rect class="b" width="33.371" height="2.262" transform="translate(10.322 37.242)"/><path class="b" d="M171.371,156.142V153.88H138v2.262Z" transform="translate(-127.678 -132.121)"/><path class="b" d="M182.411,338.251l-7.671-7.671v7.671l-6.189-6.189-1.6,1.6L177,343.713v-7.671l7.671,7.671v-7.793l5.86,5.861,1.6-1.6-9.723-9.723Z" transform="translate(-152.534 -283.733)"/></g></svg>