<svg xmlns="http://www.w3.org/2000/svg" width="72.397" height="56.744" viewBox="0 0 72.397 56.744"><defs><style>.a{fill:#b1ffff;}.b{fill:#2a78b2;}</style></defs><rect class="a" width="14.894" height="45.998" transform="translate(52.13 5.373)"/><g transform="translate(0 0)"><path class="b" d="M56.307,118.34H54.044v4.713H49.33v2.262h4.714v4.714h2.262v-4.714H61.02v-2.262H56.307Z" transform="translate(-42.355 -109.433)"/><path class="b" d="M57.381,327.305l3.333-3.333,3.333,3.333,1.6-1.6-3.333-3.334,3.333-3.333-1.6-1.6-3.333,3.333-3.333-3.333-1.6,1.6,3.333,3.333-3.333,3.334Z" transform="translate(-47.893 -280.38)"/><rect class="b" width="11.69" height="2.262" transform="translate(30.354 13.62)"/><rect class="b" width="11.69" height="2.262" transform="translate(53.732 24.318)"/><rect class="b" width="11.69" height="2.262" transform="translate(53.732 30.164)"/><rect class="b" width="11.69" height="2.262" transform="translate(30.354 40.862)"/><rect class="b" width="2.828" height="2.828" transform="translate(34.785 36.337)"/><rect class="b" width="2.828" height="2.828" transform="translate(34.785 44.821)"/><path class="b" d="M0,55.35v56.744H72.4V55.35Zm25.64,2.262H46.757V82.591H25.64Zm-23.378,0H23.378V82.591H2.262Zm21.115,52.219H2.262V84.853H23.378Zm23.378,0H25.64V84.853H46.757Zm23.378,0H49.019V57.612H70.135Z" transform="translate(0 -55.35)"/></g></svg>