<svg xmlns="http://www.w3.org/2000/svg" width="36.452" height="72.397" viewBox="0 0 36.452 72.397"><defs><style>.a{fill:#b1ffff;}.b{fill:#2a78b2;}</style></defs><path class="a" d="M180.845,323.651a12.379,12.379,0,1,1,12.379-12.379A12.379,12.379,0,0,1,180.845,323.651Z" transform="translate(-162.617 -256.63)"/><g transform="translate(0 0)"><path class="b" d="M146.462,36.925v-3.82l3.426-3.432h.008c1.651,0,6.791-.283,10.1-3.592,2.93-2.93,3.757-7.419,3.526-11.628-4.209-.232-8.7.594-11.628,3.526-3.306,3.308-3.589,8.427-3.589,10.088l-1.839,1.839V20.394c1.166-1.166,4.6-5,4.6-9.678,0-4.144-2.59-7.9-5.73-10.715-3.138,2.81-5.73,6.57-5.73,10.715,0,4.683,3.432,8.512,4.6,9.678V35.288l-1.839-1.839c0-1.661-.283-6.781-3.592-10.086-2.931-2.931-7.422-3.757-11.628-3.526-.232,4.207.594,8.7,3.526,11.628,3.31,3.31,8.444,3.592,10.1,3.592h.008l2.015,2.015a17.758,17.758,0,1,0,3.679-.147Zm7.028-17.343c2.336-2.336,6.006-2.818,7.812-2.909-.088,1.805-.566,5.465-2.91,7.809s-6.006,2.818-7.812,2.909c.086-1.8.564-5.464,2.91-7.808h0Zm-11.626-8.866c0-3.3,2.254-6.239,3.467-7.58,1.215,1.337,3.465,4.264,3.465,7.58s-2.254,6.239-3.466,7.58C144.113,16.959,141.864,14.032,141.864,10.716ZM132.269,29.87c-2.334-2.334-2.818-6-2.909-7.809,1.809.09,5.476.574,7.809,2.907s2.818,6.006,2.909,7.812C138.273,32.694,134.613,32.22,132.269,29.87ZM145.33,70.134a15.491,15.491,0,1,1,15.491-15.491A15.491,15.491,0,0,1,145.33,70.134Z" transform="translate(-127.102 -0.001)"/><path class="b" d="M217.814,326.1h8.047v-2.264H222.4v-2.31h-2.264v2.31H215.55v8h9.179v3.473h-8.047v2.264h3.458v2.31H222.4v-2.31h4.589v-8h-9.179Z" transform="translate(-203.043 -276.06)"/></g></svg>