<svg xmlns="http://www.w3.org/2000/svg" width="54.02" height="72.397" viewBox="0 0 54.02 72.397"><defs><style>.a{fill:#b1ffff;}.b{fill:#2a78b2;}</style></defs><path class="a" d="M122.989,211.244V167.972H160.6v43.272Zm3.712-3.96h9.439v-9.432H126.7Zm0-12.963h9.439v-9.432H126.7Zm0-12.963h9.439v-9.426H126.7Z" transform="translate(-114.787 -144.221)"/><g transform="translate(0 0)"><path class="b" d="M119,9.186h-16.75a10.323,10.323,0,0,0-20.52,0H64.985V20.641h2.828V72.4h48.363V20.641H119V9.186ZM91.995,2.257a8.073,8.073,0,0,1,7.981,6.929H84.013A8.073,8.073,0,0,1,91.995,2.257Zm21.919,67.878H70.076V20.641h43.838Zm2.828-51.757H67.248V11.449h49.494v6.929Z" transform="translate(-64.985 0)"/><path class="b" d="M156.529,192.974H146.241v10.281h10.288Zm-2.263,8.018H148.5v-5.755h5.762Z" transform="translate(-134.751 -165.687)"/><rect class="b" width="15.635" height="2.263" transform="translate(25.764 31.293)"/><path class="b" d="M156.529,284.612H146.241V294.9h10.288Zm-2.263,8.025H148.5v-5.762h5.762Z" transform="translate(-134.751 -244.368)"/><rect class="b" width="15.635" height="2.263" transform="translate(25.764 44.256)"/><path class="b" d="M156.529,376.289H146.241V386.57h10.288Zm-2.263,8.018H148.5v-5.755h5.762Z" transform="translate(-134.751 -323.082)"/><rect class="b" width="15.635" height="2.263" transform="translate(25.764 57.22)"/></g></svg>