<svg xmlns="http://www.w3.org/2000/svg" width="72.397" height="72.397" viewBox="0 0 72.397 72.397"><defs><style>.a{fill:#b1ffff;}.b{fill:#2a78b2;}</style></defs><path class="a" d="M68.825,99.651a30.808,30.808,0,1,1,.034,0Zm0-36.128a5.3,5.3,0,1,0,5.3,5.3h0A5.308,5.308,0,0,0,68.825,63.523Z" transform="translate(-32.627 -32.627)"/><path class="b" d="M36.2,0A36.2,36.2,0,1,0,72.4,36.2,36.179,36.179,0,0,0,36.2,0Zm0,70.135A33.936,33.936,0,1,1,70.135,36.2,33.917,33.917,0,0,1,36.2,70.135Z"/><path class="b" d="M177.6,93.263V73h-2.262V93.263a5.722,5.722,0,0,0-3.637,8.782l-8.33,8.33,1.6,1.6,8.33-8.33a5.725,5.725,0,1,0,4.3-10.382Zm-1.131,9.078a3.464,3.464,0,1,1,3.464-3.464h0A3.469,3.469,0,0,1,176.468,102.341Z" transform="translate(-140.269 -62.678)"/></svg>