<svg xmlns="http://www.w3.org/2000/svg" width="72.397" height="72.397" viewBox="0 0 72.397 72.397"><defs><style>.a{fill:#b1ffff;}.b{fill:#2a78b2;}</style></defs><rect class="a" width="43.269" height="29.925" transform="translate(14.564 13.106)"/><path class="b" d="M0,0V72.4H72.4V0ZM70.135,70.135H2.262v-14H70.135ZM2.262,53.874V2.262H70.135V53.874Z"/><path class="b" d="M65,95.36h54.015V54.69H65Zm2.262-38.407h49.49V93.1H67.262Z" transform="translate(-55.809 -46.957)"/><rect class="b" width="51.753" height="2.262" transform="translate(10.322 62.004)"/><path class="b" d="M205.642,115.122H217.13V112.86h-5.178v-3.6h-2.262v3.6H203.38v10.15H216v5.625H204.511V130.9h5.178v3.6h2.262v-3.6h6.309v-10.15H205.642Z" transform="translate(-174.622 -93.811)"/></svg>