<svg xmlns="http://www.w3.org/2000/svg" width="72.397" height="72.397" viewBox="0 0 72.397 72.397"><defs><style>.a{fill:#b1ffff;}.b{fill:#2a78b2;}</style></defs><path class="a" d="M68.825,99.651a30.808,30.808,0,1,1,.034,0Z" transform="translate(-32.627 -32.627)"/><path class="b" d="M36.2,0A36.2,36.2,0,1,0,72.4,36.2,36.179,36.179,0,0,0,36.2,0Zm0,70.135A33.936,33.936,0,1,1,70.135,36.2,33.917,33.917,0,0,1,36.2,70.135Z"/><path class="b" d="M159.307,122.779l-1.6-1.6-17.464,17.464L122.779,121.18l-1.6,1.6,17.932,17.932v1.229h-8V144.2h8v1.98h-8v2.262h8V166.12h2.262V148.445h8v-2.262h-8V144.2h8V141.94h-8v-1.229Z" transform="translate(-104.045 -104.045)"/></svg>