<svg xmlns="http://www.w3.org/2000/svg" width="72.397" height="71.377" viewBox="0 0 72.397 71.377"><defs><style>.a{fill:#2a78b2;}.b{fill:#b1ffff;}</style></defs><path class="a" d="M72.4,65.923,68.054,54.631H44.563L42.581,26.084a12.144,12.144,0,1,0-12.625.088l-1.1,28.458H4.344L0,65.923H5.04v9.062H67.357V65.923ZM26.284,15.751A9.915,9.915,0,1,1,36.2,25.668q-.147,0-.294,0A9.926,9.926,0,0,1,26.284,15.751ZM32.156,27.2a12.16,12.16,0,0,0,8.27-.061l1.9,27.488H31.085ZM3.248,63.692l2.628-6.831H66.521l2.628,6.831Zm61.878,9.062H7.27V65.923H65.127Z" transform="translate(0 -3.608)"/><path class="b" d="M214.4,54.745a6.849,6.849,0,1,1,6.848-6.851h0a6.842,6.842,0,0,1-6.835,6.849Z" transform="translate(-178.203 -35.752)"/></svg>