<svg xmlns="http://www.w3.org/2000/svg" width="72.397" height="72.397" viewBox="0 0 72.397 72.397"><defs><style>.a{fill:#b1ffff;}.b{fill:#2a78b2;}</style></defs><path class="a" d="M68.825,99.651a30.808,30.808,0,1,1,.034,0Z" transform="translate(-32.627 -32.627)"/><path class="b" d="M36.2,0A36.2,36.2,0,1,0,72.4,36.2,36.179,36.179,0,0,0,36.2,0Zm0,70.135A33.936,33.936,0,1,1,70.135,36.2,33.917,33.917,0,0,1,36.2,70.135Z"/><path class="b" d="M190.355,89.169a10.833,10.833,0,0,0-10.821-10.82h-3.818V73h-2.262v5.349H164.47V119.4h8.983v5.349h2.262V119.4h3.818a10.819,10.819,0,0,0,4.775-20.527A10.832,10.832,0,0,0,190.355,89.169Zm-2.262,19.413a8.567,8.567,0,0,1-8.559,8.559h-12.8V100.032h12.8a8.567,8.567,0,0,1,8.559,8.552Zm-8.559-10.854h-12.8V80.619h12.8a8.558,8.558,0,0,1,0,17.109Z" transform="translate(-141.214 -62.678)"/></svg>