<svg xmlns="http://www.w3.org/2000/svg" width="71.86" height="72.397" viewBox="0 0 71.86 72.397"><defs><style>.a{fill:#b1ffff;}.b{fill:#2a78b2;}</style></defs><path class="a" d="M45.442,50.532l6.759-13H98.229l6.759,13L75.215,95.072Z" transform="translate(-39.285 -32.224)"/><path class="b" d="M64.062,0H11.591L1.9,18.645,37.826,72.4l35.93-53.752ZM48.95,19.691,37.786,65.807,25.744,19.691ZM26.576,17.457,37.826,2.941,49.077,17.457ZM40.106,2.234h21L50.6,15.781ZM24.35,16.682,14.4,2.234H35.547Zm-2.18.775H5.033L12.409,3.28Zm1.257,2.234L35.063,64.252,5.287,19.691Zm27.815,0H70.366L40.392,64.539Zm.884-2.234L63.2,3.181,70.62,17.457Z" transform="translate(-1.896)"/></svg>