<svg xmlns="http://www.w3.org/2000/svg" width="46.521" height="72.397" viewBox="0 0 46.521 72.397"><defs><style>.a{fill:#b1ffff;}.b{fill:#2a78b2;}</style></defs><path class="a" d="M129.5,83.661V38h35.774V83.661Zm20.927-8.343h10.605V64.725H150.427Zm-16.685,0h10.605V64.725H133.742Zm16.685-18.382h10.605V46.343H150.427Zm-16.685,0h10.605V46.343H133.742Z" transform="translate(-124.127 -32.627)"/><g transform="translate(0)"><path class="b" d="M91.5,0V72.4h46.521V0Zm15.2,70.135V56.407h6.929V70.135Zm9.191,0V56.407h6.929V70.135Zm19.867,0H125.083V54.145H104.438v15.99H93.762V2.262h42Z" transform="translate(-91.5)"/><path class="b" d="M167.953,94H156.5v11.453h11.453Zm-2.262,9.191h-6.929V96.262h6.929Z" transform="translate(-147.309 -80.708)"/><path class="b" d="M285.953,94H274.5v11.453h11.453Zm-2.262,9.191h-6.929V96.262h6.929Z" transform="translate(-248.624 -80.708)"/><path class="b" d="M167.953,224H156.5v11.453h11.453Zm-2.262,9.191h-6.929v-6.929h6.929Z" transform="translate(-147.309 -192.326)"/><path class="b" d="M285.953,224H274.5v11.453h11.453Zm-2.262,9.191h-6.929v-6.929h6.929Z" transform="translate(-248.624 -192.326)"/></g></svg>