<svg xmlns="http://www.w3.org/2000/svg" width="72.397" height="72.397" viewBox="0 0 72.397 72.397"><defs><style>.a{fill:#b1ffff;}.b{fill:#2a78b2;}</style></defs><path class="a" d="M38,316.507V290.57l30.825,13.905L99.651,290.57v25.937Z" transform="translate(-32.627 -249.483)"/><path class="b" d="M63.206,26.893V9.854L53.352,0H9.191V26.893L0,33.963V72.4H72.4V33.963ZM24.5,46.3,2.262,68.535V36.271Zm2.2.99,9.5,4.29,9.5-4.284,22.84,22.839H3.862Zm21.2-.99,22.235-10.03V68.535ZM54.015,3.862l5.329,5.329H54.015Zm15.063,30.4-5.872,2.651V29.746Zm-57.625-32h40.3v9.191h9.191V37.935L36.2,49.1,11.453,37.935ZM9.191,36.914l-5.874-2.65,5.874-4.525Z"/><path class="b" d="M144.706,81.38H130V95.626h14.706Zm-2.262,11.984H132.262V83.642h10.181Z" transform="translate(-111.618 -69.873)"/><rect class="b" width="16.685" height="2.262" transform="translate(36.199 17.498)"/><rect class="b" width="16.685" height="2.262" transform="translate(36.199 23.491)"/><rect class="b" width="33.371" height="2.262" transform="translate(19.513 29.482)"/><rect class="b" width="33.371" height="2.262" transform="translate(19.513 35.475)"/></svg>