<svg xmlns="http://www.w3.org/2000/svg" width="59.428" height="59.428" viewBox="0 0 59.428 59.428"><defs><style>.a{fill:#b1ffff;}.b{fill:#2a78b2;}</style></defs><g transform="translate(0 -5.803)"><path class="a" d="M62.363,138.263A24.337,24.337,0,1,1,86.7,113.926,24.365,24.365,0,0,1,62.363,138.263Z" transform="translate(-32.649 -78.398)"/><g transform="translate(0 0)"><path class="b" d="M29.714,51.484A29.714,29.714,0,1,0,59.428,81.2,29.747,29.747,0,0,0,29.714,51.484Zm0,57.175a27.45,27.45,0,1,1,27.45-27.45A27.476,27.476,0,0,1,29.714,108.659Z" transform="translate(0 -45.681)"/><path class="b" d="M148.221,156.332h14.765v-2.264H156.17v-4.829h-2.264v4.829h-7.949v12.2h15.9v7.672H147.089V176.2h6.817v4.829h2.264V176.2h7.948V164h-15.9Z" transform="translate(-125.319 -129.614)"/></g></g></svg>