<svg xmlns="http://www.w3.org/2000/svg" width="72.397" height="71.266" viewBox="0 0 72.397 71.266"><defs><style>.a{fill:#b1ffff;}.b{fill:#2a78b2;}</style></defs><path class="a" d="M70.5,107v36.2h52.46V107Zm24.59,31.682a11.943,11.943,0,1,1,0-23.887V126.74h11.943A11.943,11.943,0,0,1,95.09,138.682Zm3.28-15.223V111.516a11.943,11.943,0,0,1,11.943,11.943Z" transform="translate(-60.531 -92.436)"/><g transform="translate(0 0)"><path class="b" d="M72.4,4H0V15.453H4.6V60.136H35.067v15.13H37.33V60.136H67.8V15.453h4.6ZM65.539,57.874H6.858V15.453H65.539Zm4.6-44.683H2.262V6.262H70.135Z" transform="translate(0 -4)"/><path class="b" d="M165.014,180.279c6.338,0,13.074-4.622,13.074-14.205H166.145V154.13c-9.352,0-14.205,6.516-14.205,13.074A13.089,13.089,0,0,0,165.014,180.279Zm-1.131-23.827v11.878H175.76a10.813,10.813,0,1,1-11.878-11.878Z" transform="translate(-130.456 -132.902)"/><path class="b" d="M259.6,130.94v14.205h14.205C273.805,137.256,269.1,130.94,259.6,130.94Zm2.262,11.943v-9.615a10.833,10.833,0,0,1,9.615,9.615Z" transform="translate(-222.892 -112.991)"/></g></svg>