<svg xmlns="http://www.w3.org/2000/svg" width="54.015" height="72.397" viewBox="0 0 54.015 72.397"><defs><style>.a{fill:#b1ffff;}.b{fill:#2a78b2;}</style></defs><path class="a" d="M103,99.651V38h34.078v9.191h9.191v52.46Zm6.01-35.571h31.25v-13.4H109.01Z" transform="translate(-97.627 -32.627)"/><g transform="translate(0)"><path class="b" d="M109.161,0H65V72.4h54.015V9.854Zm.663,3.862,5.329,5.329h-5.329ZM67.262,70.135V2.262h40.3v9.191h9.191V70.135Z" transform="translate(-65)"/><path class="b" d="M174.6,124.69H142.5v14.246h32.1Zm-2.262,11.984H144.762v-9.721h27.573Z" transform="translate(-131.541 -107.059)"/><rect class="b" width="33.371" height="2.262" transform="translate(10.322 38.363)"/><rect class="b" width="33.371" height="2.262" transform="translate(10.322 55.331)"/><rect class="b" width="33.371" height="2.262" transform="translate(10.322 46.847)"/></g></svg>