<svg xmlns="http://www.w3.org/2000/svg" width="72.397" height="57.394" viewBox="0 0 72.397 57.394"><defs><style>.a{fill:#b1ffff;}.b{fill:#2a78b2;}</style></defs><path class="a" d="M84.892,153.6A7.557,7.557,0,0,0,83,151.709V130.895A7.558,7.558,0,0,0,84.892,129h45.141a7.558,7.558,0,0,0,1.892,1.895v20.814a7.558,7.558,0,0,0-1.892,1.895Z" transform="translate(-71.264 -118.466)"/><g transform="translate(0 0)"><path class="b" d="M0,54.5v45.672H72.4V54.5ZM70.135,97.91H2.262V56.762H70.135Z" transform="translate(0 -54.5)"/><rect class="b" width="69" height="2" transform="translate(1.272 49.394)"/><rect class="b" width="69" height="3" transform="translate(1.272 54.394)"/><path class="b" d="M48.218,126.367h53.234c0-2.084-.141-3.218,3.218-3.218V94.238c-2.084,0-3.218.141-3.218-3.218H48.218c0,3.381-1.186,3.218-3.218,3.218v28.908C47.084,123.146,48.218,123.006,48.218,126.367Zm-.956-30.015a4.366,4.366,0,0,0,3.068-3.073H99.34a4.367,4.367,0,0,0,3.068,3.068v24.684A4.366,4.366,0,0,0,99.34,124.1H50.331a4.366,4.366,0,0,0-3.068-3.073Z" transform="translate(-38.637 -85.856)"/><path class="b" d="M224.734,164.9h-8.043v2.262h3.456v2.309h2.262v-2.309H227v-8h-9.174v-3.471h8.043v-2.262h-3.456V151.12h-2.262v2.309H215.56v8h9.174Z" transform="translate(-185.08 -137.458)"/></g></svg>