<svg xmlns="http://www.w3.org/2000/svg" width="72.397" height="63.206" viewBox="0 0 72.397 63.206"><defs><style>.a{fill:#b1ffff;}.b{fill:#2a78b2;}</style></defs><path class="a" d="M38,70.5v31.25H99.651V70.5ZM77.027,94.326a11.595,11.595,0,1,1,0-16.4,11.595,11.595,0,0,1,0,16.4Z" transform="translate(-32.627 -65.127)"/><g transform="translate(0 0)"><path class="b" d="M0,32.5V86.515H28.3l-2.828,9.191H46.921l-2.828-9.191H72.4V32.5ZM43.858,93.444H28.539l2.132-6.929H41.726Zm26.276-9.191H2.262V74.5H70.135ZM2.262,72.234V34.762H70.135V72.234Z" transform="translate(0 -32.5)"/><path class="b" d="M187.688,94.73a12.726,12.726,0,1,0-.006,18l.006-.006A12.726,12.726,0,0,0,187.688,94.73Zm-2.442,17.15a10.464,10.464,0,1,1,0-16.308l-8.153,8.153Zm1.6-14.706a10.482,10.482,0,0,1,0,13.108l-6.554-6.557Z" transform="translate(-142.494 -82.728)"/></g></svg>