<svg xmlns="http://www.w3.org/2000/svg" width="70.096" height="72.397" viewBox="0 0 70.096 72.397"><defs><style>.a{fill:#b1ffff;}.b{fill:#2a78b2;}</style></defs><path class="a" d="M68.442,92.758a26.481,26.481,0,0,1,0-52.274Z" transform="translate(-40.832 -34.76)"/><g transform="translate(0)"><path class="b" d="M8.137,31.861c0,16.495,12.731,31.861,32.995,31.861V0C20.875,0,8.137,15.36,8.137,31.861ZM38.865,61.436a29.6,29.6,0,0,1,0-59.147Z" transform="translate(-8.137)"/><path class="b" d="M270.52,301.912c9.3,0,16.862-2.533,24.465-10.134L270.52,267.313Zm2.267-29.125,18.977,18.976a29.363,29.363,0,0,1-18.977,7.86V272.787Z" transform="translate(-233.419 -229.515)"/><path class="b" d="M303.515,31.861C303.515,15.459,290.894,0,270.52,0V32.332l22.861,22.861C300.41,48.165,303.515,40.449,303.515,31.861Zm-30.728-.469V2.288a29.6,29.6,0,0,1,20.58,49.682Z" transform="translate(-233.419)"/></g></svg>