<svg xmlns="http://www.w3.org/2000/svg" width="54.015" height="72.397" viewBox="0 0 54.015 72.397"><defs><style>.a{fill:#b1ffff;}.b{fill:#2a78b2;}</style></defs><path class="a" d="M103,139.38V186.7h43.269V139.38Zm17.392,17.665H107.949V145.061h12.443Z" transform="translate(-97.627 -119.672)"/><g transform="translate(0)"><path class="b" d="M109.161,0H65V72.4h54.015V9.854Zm.663,3.862,5.329,5.329h-5.329Zm6.929,66.273H67.262V16.6h49.49Zm-49.49-55.8V2.262h40.3v9.191h9.191v2.882Z" transform="translate(-65)"/><path class="b" d="M144.706,171.56H130v14.246h14.706Zm-2.262,11.984H132.262v-9.721h10.181Z" transform="translate(-120.809 -147.301)"/><rect class="b" width="13.857" height="2.262" transform="translate(29.836 24.259)"/><rect class="b" width="13.857" height="2.262" transform="translate(29.836 36.242)"/><rect class="b" width="33.371" height="2.262" transform="translate(10.322 48.226)"/><rect class="b" width="33.371" height="2.262" transform="translate(10.322 60.21)"/></g></svg>