<svg xmlns="http://www.w3.org/2000/svg" width="72.397" height="45.672" viewBox="0 0 72.397 45.672"><defs><style>.a{fill:#b1ffff;}.b{fill:#2a78b2;}</style></defs><path class="a" d="M84.892,193.6A7.557,7.557,0,0,0,83,191.709V170.895A7.557,7.557,0,0,0,84.892,169h45.141a7.558,7.558,0,0,0,1.892,1.895v20.814a7.558,7.558,0,0,0-1.892,1.895Z" transform="translate(-71.264 -158.466)"/><g transform="translate(0 0)"><path class="b" d="M0,94.5v45.672H72.4V94.5Zm70.135,43.41H2.262V96.762H70.135Z" transform="translate(0 -94.5)"/><path class="b" d="M48.218,166.367h53.234c0-2.084-.141-3.218,3.218-3.218V134.238c-3.381,0-3.218-1.186-3.218-3.218H48.218c0,3.381-1.186,3.218-3.218,3.218v28.908C47.084,163.146,48.218,163.006,48.218,166.367Zm-.956-30.015a4.365,4.365,0,0,0,3.068-3.073H99.34a4.365,4.365,0,0,0,3.068,3.068v24.684A4.365,4.365,0,0,0,99.34,164.1H50.331a4.365,4.365,0,0,0-3.068-3.073Z" transform="translate(-38.637 -125.856)"/><path class="b" d="M224.734,204.9h-8.043v2.262h3.456v2.309h2.262v-2.309H227v-8h-9.174v-3.471h8.043v-2.262h-3.456V191.12h-2.262v2.309H215.56v8h9.174Z" transform="translate(-185.08 -177.458)"/></g></svg>