<svg xmlns="http://www.w3.org/2000/svg" width="72.396" height="69.754" viewBox="0 0 72.396 69.754"><defs><style>.a{fill:#b1ffff;}.b{fill:#2a78b2;}</style></defs><path class="a" d="M38,47.345H71.653V64.737H41.191L38,67.929Z" transform="translate(-32.627 -41.972)"/><g transform="translate(0 0)"><path class="b" d="M0,48.274V9.345H44.4V37.484H10.79ZM2.262,11.607V42.813l7.592-7.592H42.137V11.607Z" transform="translate(0 -9.345)"/><rect class="b" width="3.111" height="3.111" transform="translate(20.644 12.513)"/><rect class="b" width="3.111" height="3.111" transform="translate(13.45 12.513)"/><rect class="b" width="3.111" height="3.111" transform="translate(27.838 12.513)"/><path class="b" d="M198,227.345v28.139h33.61l10.79,10.79V227.345Zm42.137,33.468-7.592-7.592H200.262V229.607h39.875Z" transform="translate(-170.003 -196.52)"/><rect class="b" width="3.111" height="3.111" transform="translate(48.642 43.34)"/><rect class="b" width="3.111" height="3.111" transform="translate(55.836 43.34)"/><rect class="b" width="3.111" height="3.111" transform="translate(41.449 43.34)"/></g></svg>