<svg xmlns="http://www.w3.org/2000/svg" width="72.397" height="65.002" viewBox="0 0 72.397 65.002"><defs><style>.a{fill:#2a78b2;}.b{fill:#b1ffff;}</style></defs><path class="a" d="M60.974,50.51H72.4L36.2,26.149,0,50.51H11.423v28.9H3.816V91.151H68.581V79.415H60.974Zm-2.318,28.9h-7.1V50.51h7.1Zm-28.325,0H23.159V50.51h7.172Zm2.318-28.9h7.1v28.9h-7.1Zm9.418,0h7.172v28.9H42.067ZM7.6,48.192l28.6-19.25,28.6,19.25Zm6.145,2.318h7.1v28.9h-7.1ZM66.263,81.733v7.1H6.135v-7.1Z" transform="translate(0 -26.149)"/><path class="b" d="M127.59,85.3l18.157-12.22L163.9,85.3Z" transform="translate(-109.549 -66.442)"/></svg>