<svg xmlns="http://www.w3.org/2000/svg" width="72.396" height="72.397" viewBox="0 0 72.396 72.397"><defs><style>.a{fill:#b1ffff;}.b{fill:#2a78b2;}</style></defs><rect class="a" width="43.955" height="42.519" transform="translate(5.458 24.42)"/><rect class="b" width="33.9" height="2.298" transform="translate(10.486 31.506)"/><rect class="b" width="33.9" height="2.298" transform="translate(10.486 44.53)"/><rect class="b" width="33.9" height="2.298" transform="translate(10.486 57.554)"/><path class="b" d="M44.6,0H42.3V6.033H28.585V0h-2.3V6.033H12.569V0h-2.3V6.033H0V72.4H54.872V6.033H44.6Zm7.972,70.1H2.3V21.259H52.574Zm0-61.767v10.63H2.3V8.331h7.972v4.6h2.3v-4.6H26.287v4.6h2.3v-4.6H42.3v4.6h2.3v-4.6Z"/><path class="b" d="M438.364,52.764l-5.6,7.228V117.7h11.2V59.992Zm2.109,6.473h-4.217l2.109-2.721ZM435.06,115.4V61.535h6.608V115.4Z" transform="translate(-371.569 -45.303)"/></svg>