<svg xmlns="http://www.w3.org/2000/svg" width="72.397" height="72.367" viewBox="0 0 72.397 72.367"><defs><style>.a{fill:#b1ffff;}.b{fill:#2a78b2;}</style></defs><rect class="a" width="9.898" height="9.898" transform="translate(31.25 57.095)"/><path class="b" d="M62.442,15.771H66.67V13.509H37.33V11.416a5.711,5.711,0,1,0-2.262,0v2.093H5.727v2.262H9.955L0,35.143v1.131a11.772,11.772,0,1,0,23.543,0V35.143L13.589,15.771H35.067V51.829H25.876V61.02h-4.6V72.473H51.116V61.02h-4.6V51.829H37.33V15.771H58.808L48.854,35.143v1.131a11.772,11.772,0,1,0,23.543,0V35.143ZM32.748,5.818A3.449,3.449,0,1,1,36.2,9.267a3.449,3.449,0,0,1-3.45-3.449ZM11.772,45.784a9.523,9.523,0,0,1-9.443-8.378H21.21A9.523,9.523,0,0,1,11.772,45.784ZM2.948,35.143,11.772,17.2l8.823,17.939ZM48.854,63.282v6.929H23.543V63.282h4.6V54.091h16.12v9.191ZM60.625,17.2l8.823,17.939H51.8Zm0,28.58a9.523,9.523,0,0,1-9.438-8.378H70.068A9.523,9.523,0,0,1,60.625,45.784Z" transform="translate(0 -0.106)"/></svg>