<svg xmlns="http://www.w3.org/2000/svg" width="72.397" height="49.773" viewBox="0 0 72.397 49.773"><defs><style>.a{fill:#b1ffff;}.b{fill:#2a78b2;}</style></defs><path class="a" d="M277.031,230.453A12.771,12.771,0,1,1,289.8,217.681,12.771,12.771,0,0,1,277.031,230.453Z" transform="translate(-226.893 -187.248)"/><path class="b" d="M56.948,127.437a18.433,18.433,0,0,0,10.7-11.613,18.039,18.039,0,0,0-.5-12.2A18.318,18.318,0,0,0,32.987,104V80H3.941v47.437H0v2.336H72.4v-2.336ZM50.138,94.45A15.978,15.978,0,1,1,34.16,110.428h0A16,16,0,0,1,50.138,94.45ZM6.277,82.336H30.651v7.152H6.277Zm0,9.488H30.651v7.152H6.277Zm0,9.488H30.651v7.152H6.277Zm0,9.488H30.651v7.152H6.277Zm0,16.64v-7.155H30.651v7.152Zm26.711-10.57a18.418,18.418,0,0,0,10.341,10.57H32.987V116.87Z" transform="translate(0 -80)"/><path class="b" d="M322.31,242.479h-8.3v2.336h3.566V247.2h2.336v-2.384h4.734v-8.254h-9.47v-3.583h8.3v-2.336H319.91V228.26h-2.336v2.383H312.84V238.9h9.47Z" transform="translate(-268.604 -207.296)"/></svg>