<svg xmlns="http://www.w3.org/2000/svg" width="72.397" height="63.206" viewBox="0 0 72.397 63.206"><defs><style>.a{fill:#2a78b2;}.b{fill:#b1ffff;}</style></defs><path class="a" d="M0,32.5V67.108H13.362v28.6H59.035v-28.6H72.4V32.5ZM20.786,60.639h8.873a6.635,6.635,0,0,0,13.074,0h8.879V84.012a4.365,4.365,0,0,0-3.068,3.068H23.859a4.366,4.366,0,0,0-3.073-3.068Zm19.633,0a4.372,4.372,0,0,1-8.447,0Zm16.35,32.8H15.622v-32.8h2.9V86.125c2.084,0,3.218-.141,3.218,3.218H50.652c0-3.381,1.186-3.218,3.218-3.218V60.639h2.9Zm13.365-28.6h-11.1V60.639h3.04V58.376H10.322v2.262h3.04v4.207H2.262V54.17H70.135ZM2.262,51.907V34.762H70.135V51.907Z" transform="translate(0 -32.5)"/><path class="b" d="M190.069,253.5a9.744,9.744,0,0,1-17.546,0H169v18.328a7.524,7.524,0,0,1,1.895,1.892h20.814a7.524,7.524,0,0,1,1.895-1.892V253.5Z" transform="translate(-145.103 -222.25)"/></svg>