<svg xmlns="http://www.w3.org/2000/svg" width="65.018" height="56.891" viewBox="0 0 65.018 56.891"><defs><style>.a{fill:#b1ffff;}.b{fill:#fff;}</style></defs><g transform="translate(0 -32)"><g transform="translate(30.036 78.879)"><rect class="a" width="9" height="9" transform="translate(-2.036 -1.988)"/><rect class="a" width="9" height="9" transform="translate(22.964 -1.988)"/></g><g transform="translate(0 32)"><path class="b" d="M198,193.652h14.731V152H198Zm12.7-2.032H200.032V180.953H210.7Zm-10.667-37.588H210.7v24.89H200.032Z" transform="translate(-172.856 -136.761)"/><path class="b" d="M396,32V88.891h14.731V32Zm12.7,54.859H398.032V76.192H408.7Zm-10.667-12.7V34.032H408.7V74.16Z" transform="translate(-345.713 -32)"/><path class="b" d="M0,246.033H14.731V212H0ZM12.7,244H2.032V233.334H12.7ZM2.032,214.032H12.7V231.3H2.032Z" transform="translate(0 -189.142)"/></g><rect class="a" width="9" height="9" transform="translate(3 76.891)"/></g></svg>