<svg xmlns="http://www.w3.org/2000/svg" width="30.01" height="19.127" viewBox="0 0 30.01 19.127"><defs><style>.a{fill:#fff;}</style></defs><g transform="translate(0 0)"><g transform="translate(0 0)"><g transform="translate(0 0)"><path class="a" d="M29.819,101.815c-.268-.367-6.656-8.98-14.814-8.98S.458,101.448.19,101.815a.99.99,0,0,0,0,1.168c.268.367,6.656,8.98,14.814,8.98s14.546-8.613,14.814-8.98A.989.989,0,0,0,29.819,101.815ZM15,109.984C9,109.984,3.79,104.267,2.25,102.4,3.788,100.527,8.982,94.814,15,94.814s11.214,5.716,12.755,7.586C26.221,104.27,21.027,109.984,15,109.984Z" transform="translate(0 -92.835)"/></g></g><g transform="translate(9.069 3.628)"><g transform="translate(0 0)"><path class="a" d="M160.658,154.725a5.936,5.936,0,1,0,5.936,5.936A5.943,5.943,0,0,0,160.658,154.725Zm0,9.893a3.957,3.957,0,1,1,3.957-3.957A3.962,3.962,0,0,1,160.658,164.618Z" transform="translate(-154.722 -154.725)"/></g></g></g></svg>