<svg xmlns="http://www.w3.org/2000/svg" width="30.844" height="30.844" viewBox="0 0 30.844 30.844"><defs><style>.a{fill:#fbbb00;}.b{fill:#518ef8;}.c{fill:#28b446;}.d{fill:#f14336;}</style></defs><path class="a" d="M6.836,148.578l-1.074,4.008-3.924.083a15.449,15.449,0,0,1-.114-14.4h0l3.494.64,1.53,3.473a9.2,9.2,0,0,0,.087,6.2Z" transform="translate(0 -129.939)"/><path class="b" d="M276.441,208.176a15.416,15.416,0,0,1-5.5,14.908h0l-4.4-.225-.623-3.888a9.191,9.191,0,0,0,3.955-4.693h-8.246v-6.1h14.813Z" transform="translate(-245.867 -195.635)"/><path class="c" d="M53.747,318.217h0A15.427,15.427,0,0,1,30.509,313.5l5-4.091a9.172,9.172,0,0,0,13.217,4.7Z" transform="translate(-28.671 -290.77)"/><path class="d" d="M52.165,3.55l-5,4.09a9.171,9.171,0,0,0-13.52,4.8L28.625,8.329h0A15.425,15.425,0,0,1,52.165,3.55Z" transform="translate(-26.9)"/></svg>