<svg xmlns="http://www.w3.org/2000/svg" width="37.094" height="50.484" viewBox="0 0 37.094 50.484"><defs><style>.a{fill:#b1ffff;}.b{fill:#2a78b2;}</style></defs><rect class="a" width="28.857" height="21.481" transform="translate(4.119 24.884)"/><g transform="translate(0 0)"><path class="b" d="M101.306,20.766V17.078H97.618V11.172a11.172,11.172,0,1,0-22.343,0v9.594H67.9V50.484h37.094V20.766Zm-1.578,0h-5.8v-2.11h5.8ZM76.853,11.172a9.594,9.594,0,0,1,19.188,0v5.906H92.353v3.688h-15.5Zm26.563,37.735H69.478V22.343h33.939Z" transform="translate(-67.9 0)"/><path class="b" d="M226.916,303.453h-1.248a1.085,1.085,0,1,1,0-2.169h3.121v-1.578h-1.708V298H225.5v1.713a2.662,2.662,0,0,0,.165,5.317h1.248a1.085,1.085,0,0,1,0,2.169H223.8v1.578H225.5v1.708h1.578v-1.715a2.662,2.662,0,0,0-.165-5.317Z" transform="translate(-207.745 -268.617)"/></g></svg>