<svg xmlns="http://www.w3.org/2000/svg" width="47.299" height="47.3" viewBox="0 0 47.299 47.3"><defs><style>.a{fill:#3db39e;}</style></defs><g transform="translate(-0.004)"><path class="a" d="M23.654,0A23.65,23.65,0,1,0,47.3,23.65,23.649,23.649,0,0,0,23.654,0Zm0,42.866A19.216,19.216,0,1,1,42.868,23.65,19.215,19.215,0,0,1,23.654,42.866ZM32.949,13.59a2.059,2.059,0,0,0-2.868.8l-7.93,14.245-4.417-5.376c-.8-.921-1.862-1.4-2.866-.8a2.186,2.186,0,0,0-.77,2.977l6.146,7.481a2.593,2.593,0,0,0,1.533,1.057l0,.009.056,0a2.682,2.682,0,0,0,2.78-1.069l9.1-16.35A2.227,2.227,0,0,0,32.949,13.59Z" transform="translate(0)"/></g></svg>