<svg xmlns="http://www.w3.org/2000/svg" width="52.984" height="52.984" viewBox="0 0 52.984 52.984"><defs><style>.a{fill:#b1ffff;}.b{fill:#06536b;}</style></defs><path class="a" d="M84.385,187.006A5.529,5.529,0,0,0,83,185.62V170.387A5.529,5.529,0,0,0,84.385,169h33.037a5.529,5.529,0,0,0,1.385,1.387V185.62a5.529,5.529,0,0,0-1.385,1.387Z" transform="translate(-74.411 -151.511)"/><path class="b" d="M0,94.5v33.426H52.984V94.5Zm51.329,31.77H1.656V96.156H51.329Z" transform="translate(0 -84.721)"/><path class="b" d="M47.355,156.889h38.96c0-2.474.868-2.355,2.355-2.355V133.375c-2.474,0-2.355-.868-2.355-2.355H47.355c0,2.474-.868,2.355-2.355,2.355v21.156C46.525,154.532,47.355,154.429,47.355,156.889Zm-.7-21.967a3.194,3.194,0,0,0,2.246-2.249H84.769a3.2,3.2,0,0,0,2.246,2.246v18.065a3.194,3.194,0,0,0-2.246,2.249H48.9a3.194,3.194,0,0,0-2.246-2.249Z" transform="translate(-40.343 -117.461)"/><path class="b" d="M222.084,200.794h-5.936v1.656H218.7v1.71h1.656v-1.71h3.382v-5.883h-6.764V194h5.936V192.34h-2.554v-1.71H218.7v1.71H215.32v5.883h6.764Z" transform="translate(-193.038 -170.903)"/><path class="b" d="M10.238,4.777,9.067,3.605,7.117,5.556v-3.9H50.063v5.9h1.656V0H5.461V5.556L3.511,3.605,2.34,4.777,6.289,8.725Z" transform="translate(-2.098)"/><path class="b" d="M73.981,431.638l1.171,1.171,1.95-1.951v3.9H34.156v-5.9H32.5v7.554H78.758v-5.556l1.95,1.951,1.171-1.171L77.93,427.69Z" transform="translate(-29.137 -383.43)"/></svg>