<svg xmlns="http://www.w3.org/2000/svg" width="47.452" height="47.452" viewBox="0 0 47.452 47.452"><defs><style>.a{fill:#e2574c;}</style></defs><path class="a" d="M23.726,0A23.726,23.726,0,1,0,47.452,23.726,23.727,23.727,0,0,0,23.726,0Zm0,43A19.277,19.277,0,1,1,43,23.726,19.277,19.277,0,0,1,23.726,43Zm0-32.6c-1.7,0-2.985.887-2.985,2.319V25.863c0,1.434,1.286,2.318,2.985,2.318,1.658,0,2.985-.921,2.985-2.318V12.725C26.713,11.326,25.386,10.405,23.728,10.405Zm0,20.735a2.961,2.961,0,1,0,2.96,2.963A2.965,2.965,0,0,0,23.728,31.141Z"/></svg>