<svg xmlns="http://www.w3.org/2000/svg" width="23" height="23" viewBox="0 0 23 23"><defs><style>.a{fill:#ff2e2e;}</style></defs><g transform="translate(0.089)"><path class="a" d="M11.5,23A11.5,11.5,0,1,1,23,11.5,11.513,11.513,0,0,1,11.5,23Zm-.015-10.055h0l2.508,2.508a1.033,1.033,0,1,0,1.461-1.461l-2.509-2.509,2.509-2.51a1.033,1.033,0,1,0-1.461-1.461l-2.509,2.51-2.51-2.51A1.033,1.033,0,1,0,7.514,8.975l2.51,2.51-2.51,2.509a1.033,1.033,0,1,0,1.461,1.461l2.509-2.508Z" transform="translate(-0.089)"/></g></svg>