<svg xmlns="http://www.w3.org/2000/svg" width="31.508" height="37.001" viewBox="0 0 31.508 37.001"><defs><style>.a{fill:#fff;}</style></defs><g transform="translate(0 0.001)"><path class="a" d="M31.472,10.038V10.01c-.016-.355-.027-.731-.033-1.15a3.921,3.921,0,0,0-3.692-3.842A15.217,15.217,0,0,1,17.388.653L17.364.63a2.368,2.368,0,0,0-3.218,0l-.024.023A15.219,15.219,0,0,1,3.765,5.018,3.921,3.921,0,0,0,.072,8.86c-.006.416-.017.792-.033,1.149l0,.067c-.083,4.338-.185,9.737,1.621,14.637a18.632,18.632,0,0,0,4.47,6.963,23.384,23.384,0,0,0,8.748,5.174,2.7,2.7,0,0,0,.359.1,2.649,2.649,0,0,0,1.041,0,2.707,2.707,0,0,0,.36-.1,23.4,23.4,0,0,0,8.738-5.177,18.66,18.66,0,0,0,4.47-6.964C31.657,19.794,31.554,14.385,31.472,10.038ZM27.807,23.957c-1.9,5.165-5.794,8.712-11.888,10.843a.558.558,0,0,1-.069.019.488.488,0,0,1-.191,0,.549.549,0,0,1-.068-.018C9.49,32.673,5.6,29.128,3.7,23.963,2.03,19.446,2.125,14.49,2.208,10.118v-.024c.017-.376.028-.769.034-1.2A1.743,1.743,0,0,1,3.886,7.186a19.05,19.05,0,0,0,6.466-1.422,16.915,16.915,0,0,0,5.269-3.54.2.2,0,0,1,.269,0,16.922,16.922,0,0,0,5.269,3.54,19.05,19.05,0,0,0,6.466,1.422,1.743,1.743,0,0,1,1.642,1.706c.006.435.018.828.035,1.2C29.384,14.471,29.476,19.431,27.807,23.957Zm0,0" transform="translate(0)"/><path class="a" d="M99.62,128.41a9.221,9.221,0,1,0,9.221,9.221A9.232,9.232,0,0,0,99.62,128.41Zm0,16.271a7.05,7.05,0,1,1,7.05-7.05A7.058,7.058,0,0,1,99.62,144.681Zm0,0" transform="translate(-83.865 -119.131)"/><path class="a" d="M160.971,212.309l-4.283,4.283-1.162-1.162a1.086,1.086,0,1,0-1.535,1.535l1.93,1.93a1.086,1.086,0,0,0,1.535,0l5.051-5.051a1.086,1.086,0,1,0-1.535-1.535Zm0,0" transform="translate(-142.567 -196.672)"/></g></svg>