<svg xmlns="http://www.w3.org/2000/svg" width="82.721" height="59.237" viewBox="0 0 82.721 59.237"><defs><style>.a{fill:#b1ffff;}.b{fill:#2a78b2;}</style></defs><g transform="translate(0 -72.677)"><path class="a" d="M10.443,8.791C12.394,2.456,11.279,0,11.279,0H35.512a5.605,5.605,0,0,1,5.759,5.438v14.5a5.605,5.605,0,0,1-5.759,5.438H5.759C2.578,25.376,0,23.763,0,20.76A33.9,33.9,0,0,0,10.443,8.791Z" transform="translate(36 96.104)"/><circle class="a" cx="18.5" cy="18.5" r="18.5" transform="translate(6 79.267)"/><g transform="translate(0 72.677)"><g transform="translate(0 0)"><path class="b" d="M77.28,90.634H48.6a24.779,24.779,0,1,0-29.062,31.047l6.114,6.114A2.677,2.677,0,0,0,30.22,125.9v-4.281a24.85,24.85,0,0,0,2.936-.849v.17a5.446,5.446,0,0,0,5.44,5.44h9.135l4.866,4.866a2.269,2.269,0,0,0,3.873-1.6v-3.262h20.81a5.446,5.446,0,0,0,5.44-5.44V96.074A5.446,5.446,0,0,0,77.28,90.634ZM28.7,119.286a1.3,1.3,0,0,0-1.068,1.275V125.9a.086.086,0,0,1-.148.061l-6.388-6.388a1.294,1.294,0,0,0-.663-.354,22.2,22.2,0,0,1,1.814-43.81,23.323,23.323,0,0,1,2.566-.142,21.938,21.938,0,0,1,14.768,5.656A22.177,22.177,0,0,1,28.7,119.286Zm51.432,1.656a2.853,2.853,0,0,1-2.849,2.85H55.175a1.3,1.3,0,0,0-1.3,1.3v3.781l-4.7-4.7a1.294,1.294,0,0,0-.916-.379H38.6a2.853,2.853,0,0,1-2.849-2.85v-1.263A24.746,24.746,0,0,0,49.194,93.224H77.281a2.853,2.853,0,0,1,2.849,2.849v24.868Z" transform="translate(0 -72.677)"/></g></g><g transform="translate(49.738 100.305)"><g transform="translate(0 0)"><path class="b" d="M330.787,244.058a1.3,1.3,0,0,0-1.832,0l-12.9,12.9-5.989-5.989a1.3,1.3,0,1,0-1.832,1.832l6.9,6.9a1.3,1.3,0,0,0,1.832,0l13.816-13.816A1.3,1.3,0,0,0,330.787,244.058Z" transform="translate(-307.856 -243.679)"/></g></g><g transform="translate(23.484 107.217)"><path class="b" d="M146.65,286.464h0a1.3,1.3,0,0,0-1.3,1.3h0a1.3,1.3,0,0,0,1.3,1.3h0a1.3,1.3,0,0,0,1.3-1.3h0A1.3,1.3,0,0,0,146.65,286.464Z" transform="translate(-145.352 -286.464)"/></g><g transform="translate(16.577 85.114)"><g transform="translate(0 0)"><path class="b" d="M116.579,152.087a8.13,8.13,0,0,0-5.771-2.433,8.213,8.213,0,0,0-8.2,8.2,1.3,1.3,0,1,0,2.591,0,5.619,5.619,0,0,1,5.612-5.613,5.719,5.719,0,0,1,5.613,5.613,5.648,5.648,0,0,1-4,5.377,4.038,4.038,0,0,0-2.91,3.881v.413a1.3,1.3,0,1,0,2.591,0v-.413a1.464,1.464,0,0,1,1.064-1.4,8.255,8.255,0,0,0,5.844-7.858A8.131,8.131,0,0,0,116.579,152.087Z" transform="translate(-102.606 -149.654)"/></g></g></g></svg>