<svg xmlns="http://www.w3.org/2000/svg" width="32" height="32" viewBox="0 0 32 32"><defs><style>.a{fill:#fff;}</style></defs><g transform="translate(0 -0.001)"><g transform="translate(0 0.001)"><path class="a" d="M16,0A16,16,0,1,0,32,16,16.018,16.018,0,0,0,16,0Zm0,29.377A13.377,13.377,0,1,1,29.377,16,13.392,13.392,0,0,1,16,29.378Z" transform="translate(0 -0.001)"/><path class="a" d="M81.272,90.693l-9.5,9.5L67.429,95.85A1.311,1.311,0,0,0,65.574,97.7l5.271,5.271a1.312,1.312,0,0,0,1.855,0L83.127,92.548a1.312,1.312,0,0,0-1.855-1.855Z" transform="translate(-58.351 -80.834)"/></g></g></svg>